<?xml version="1.0" standalone="no"?>
<!DOCTYPE svg PUBLIC "-//W3C//DTD SVG 20010904//EN"
 "http://www.w3.org/TR/2001/REC-SVG-20010904/DTD/svg10.dtd">
<svg version="1.0" xmlns="http://www.w3.org/2000/svg"
 width="1315.000000pt" height="1280.000000pt" viewBox="0 0 1315.000000 1280.000000"
 preserveAspectRatio="xMidYMid meet">

<g transform="translate(0.000000,1280.000000) scale(0.100000,-0.100000)"
fill="#000000" stroke="none">
<path d="M6256 10585 c-8 -21 23 -47 53 -43 20 2 27 9 29 31 3 25 1 27 -36 27
-26 0 -42 -5 -46 -15z"/>
<path d="M6365 10590 c-3 -5 7 -16 22 -24 16 -7 36 -23 47 -35 10 -11 34 -25
52 -31 23 -8 34 -18 34 -31 0 -10 7 -19 15 -19 8 0 15 7 15 15 0 22 47 19 77
-5 14 -11 39 -20 56 -20 16 0 45 -9 63 -21 38 -23 60 -18 44 11 -28 52 14 62
78 20 66 -43 94 -38 106 19 13 59 -3 71 -76 60 -29 -5 -61 -6 -70 -3 -10 3
-44 -7 -77 -21 -64 -29 -94 -27 -111 6 -9 15 -22 19 -64 19 -52 0 -86 19 -86
47 0 6 -7 14 -16 17 -25 9 -102 7 -109 -4z"/>
<path d="M6694 10586 c-14 -36 63 -73 92 -44 21 20 -2 45 -48 53 -30 6 -39 4
-44 -9z"/>
<path d="M6034 10579 c-9 -16 27 -48 72 -64 l39 -13 -68 -31 c-52 -23 -68 -35
-65 -48 2 -13 13 -18 34 -18 17 0 38 -8 48 -17 10 -10 24 -18 31 -18 8 0 23
-13 35 -30 22 -31 64 -41 73 -17 5 14 -81 97 -100 97 -7 0 -13 5 -13 10 0 6
20 10 44 10 53 0 99 31 94 64 -2 17 -10 21 -43 21 -27 0 -44 5 -53 17 -7 10
-21 18 -31 18 -9 0 -26 7 -37 15 -23 17 -50 19 -60 4z"/>
<path d="M5882 10562 c-10 -7 -10 -11 2 -21 20 -16 61 -10 61 9 0 17 -43 25
-63 12z"/>
<path d="M7053 10537 c-49 -18 -61 -34 -40 -54 16 -16 21 -16 92 2 77 19 97
17 76 -9 -7 -8 -10 -24 -6 -35 7 -22 -3 -27 -86 -36 -68 -8 -91 -20 -69 -35 8
-5 30 -12 48 -15 17 -3 48 -8 68 -11 27 -4 34 -8 25 -17 -17 -17 -13 -35 9
-47 16 -8 24 -6 41 11 l22 22 -21 18 c-19 15 -19 18 -6 23 12 5 15 15 12 38
-4 24 0 36 16 49 18 15 19 21 9 38 -7 11 -10 26 -7 34 4 10 -10 17 -52 26 -69
13 -89 13 -131 -2z"/>
<path d="M5662 10508 c-32 -32 9 -58 55 -36 15 7 29 21 31 31 3 14 -4 17 -35
17 -22 0 -44 -5 -51 -12z"/>
<path d="M5881 10506 c-7 -8 -11 -30 -9 -48 l3 -33 -105 -3 c-105 -3 -131 -12
-108 -40 8 -9 23 -11 50 -7 29 5 55 1 99 -15 45 -17 73 -21 119 -18 77 6 94
20 58 51 -14 12 -32 40 -39 62 -22 66 -43 82 -68 51z"/>
<path d="M5522 10488 c-7 -7 -12 -23 -12 -36 0 -13 -5 -32 -11 -44 -25 -47 22
-94 69 -69 32 17 37 49 13 82 -12 15 -21 40 -21 54 0 27 -18 33 -38 13z"/>
<path d="M7350 10492 c0 -23 59 -53 97 -50 43 4 55 24 20 37 -42 16 -117 24
-117 13z"/>
<path d="M6285 10460 c-35 -39 12 -79 105 -87 56 -5 60 -4 60 16 0 11 -4 21
-8 21 -5 0 -27 16 -49 35 -46 39 -81 44 -108 15z"/>
<path d="M5283 10430 c-33 -14 -29 -25 21 -54 53 -31 82 -33 96 -7 22 41 -61
85 -117 61z"/>
<path d="M7303 10424 c-7 -20 22 -45 44 -37 8 3 13 15 11 27 -4 27 -45 35 -55
10z"/>
<path d="M6600 10400 c-23 -23 -25 -41 -9 -57 9 -9 5 -14 -14 -18 -21 -6 -29
-18 -43 -61 -9 -30 -14 -57 -11 -60 15 -15 57 8 63 34 4 15 13 34 21 43 7 9
11 22 8 30 -3 9 7 20 28 29 35 16 46 43 27 65 -17 21 -46 19 -70 -5z"/>
<path d="M7668 10415 c-3 -3 -3 -25 -1 -49 6 -50 -9 -67 -36 -42 -23 21 -41
20 -41 -2 0 -23 19 -42 41 -42 9 0 19 -7 23 -15 3 -8 26 -24 51 -36 54 -25 70
-62 39 -89 -27 -23 -64 -77 -64 -94 0 -15 21 -26 50 -26 10 0 29 15 43 33 l26
34 112 6 c101 6 115 5 144 -13 40 -25 75 -26 75 -3 0 9 7 25 17 35 14 15 14
22 3 42 -17 32 -6 46 36 46 36 0 45 13 17 25 -10 4 -51 8 -91 10 -58 1 -77 6
-95 23 -19 18 -35 22 -88 22 -59 0 -89 11 -89 31 0 4 9 11 20 14 11 3 20 13
20 20 0 12 -50 30 -191 71 -8 2 -18 2 -21 -1z m151 -140 c26 -58 56 -73 112
-56 37 11 45 11 68 -7 14 -10 43 -24 63 -31 21 -7 35 -17 32 -24 -3 -8 -42
-12 -132 -12 l-127 1 -14 30 c-7 17 -26 39 -42 48 -33 20 -44 48 -29 76 19 35
47 25 69 -25z"/>
<path d="M7530 10391 c0 -10 7 -22 16 -25 27 -10 64 -7 64 7 0 21 -22 37 -52
37 -21 0 -28 -5 -28 -19z"/>
<path d="M7387 10383 c-23 -22 20 -83 60 -83 11 0 28 -9 39 -21 18 -20 18 -21
1 -34 -11 -7 -14 -16 -8 -19 5 -4 13 -1 16 4 4 6 18 15 32 21 31 11 27 37 -9
58 -14 9 -38 31 -53 49 -25 30 -62 42 -78 25z"/>
<path d="M7293 10363 c-20 -8 -16 -51 6 -58 28 -9 51 5 51 30 0 29 -26 41 -57
28z"/>
<path d="M4988 10343 c-24 -10 -38 -22 -38 -33 0 -27 25 -43 52 -34 13 5 46 9
73 9 47 0 50 2 50 25 0 20 -6 26 -27 28 -16 2 -28 8 -28 13 0 13 -39 9 -82 -8z"/>
<path d="M5618 10343 c-37 -6 -53 -27 -33 -43 31 -25 139 -2 133 28 -3 18 -46
24 -100 15z"/>
<path d="M6372 10320 c-23 -16 -42 -37 -42 -45 0 -8 -9 -19 -20 -25 -11 -6
-20 -17 -20 -24 0 -8 -10 -20 -22 -28 -32 -22 -18 -50 24 -46 32 3 33 5 36 49
3 44 5 47 35 53 53 10 99 43 95 69 -5 33 -38 32 -86 -3z"/>
<path d="M6772 10338 c-18 -18 -15 -25 21 -46 45 -27 90 -34 113 -17 18 13 18
14 1 33 -10 11 -38 25 -62 31 -55 14 -58 14 -73 -1z"/>
<path d="M5195 10330 c-4 -6 -1 -18 6 -26 15 -18 13 -20 -36 -36 -32 -11 -40
-18 -40 -38 0 -22 5 -25 39 -28 55 -5 84 5 92 30 5 16 1 27 -16 40 -18 14 -20
22 -12 30 7 7 12 18 12 25 0 15 -36 18 -45 3z"/>
<path d="M5346 10318 c-19 -27 -12 -38 23 -38 35 0 43 -8 29 -30 -24 -38 23
-70 52 -35 16 19 35 19 65 -1 26 -17 60 -12 69 11 7 19 -25 36 -61 34 -31 -2
-83 16 -83 29 0 4 5 13 11 19 19 19 0 33 -46 33 -34 0 -47 -5 -59 -22z"/>
<path d="M6057 10323 c-4 -3 -7 -15 -7 -25 0 -13 8 -18 30 -18 31 0 39 17 18
38 -13 13 -31 16 -41 5z"/>
<path d="M7033 10293 c-18 -7 -16 -53 4 -75 15 -17 14 -18 -15 -24 -17 -4 -37
-13 -44 -21 -18 -22 17 -45 62 -41 33 3 35 5 32 36 -1 22 2 32 12 32 24 0 39
26 26 49 -12 24 -59 50 -77 44z"/>
<path d="M5800 10267 c-28 -14 -54 -61 -46 -83 8 -21 41 -17 73 10 15 13 45
31 66 40 22 9 37 21 35 28 -6 18 -97 21 -128 5z"/>
<path d="M7273 10270 c-26 -10 -30 -42 -9 -59 22 -18 84 -25 100 -12 18 15 9
47 -17 66 -24 17 -42 18 -74 5z"/>
<path d="M4940 10253 c-8 -3 -27 -14 -42 -25 -23 -16 -39 -18 -95 -13 -38 3
-77 6 -89 6 -19 1 -37 -6 -150 -64 -23 -11 -49 -33 -58 -49 -10 -15 -30 -35
-47 -43 -39 -21 -37 -32 10 -40 50 -8 73 4 103 56 16 30 33 45 59 54 21 6 49
22 64 33 35 27 55 28 55 2 0 -21 -33 -60 -51 -60 -5 0 -17 -16 -25 -35 -8 -19
-27 -41 -43 -49 -16 -9 -46 -36 -67 -61 -46 -54 -76 -59 -98 -16 -9 16 -22 31
-30 34 -8 3 -16 16 -18 28 -5 38 -52 43 -105 13 -48 -29 -49 -31 -28 -54 15
-17 11 -50 -6 -50 -5 0 -9 -9 -9 -21 0 -16 4 -19 18 -14 28 11 133 24 148 18
26 -10 14 -40 -33 -86 -69 -67 -113 -122 -113 -141 0 -33 36 -14 100 52 37 37
80 79 98 93 21 18 32 36 32 52 0 29 24 47 62 47 36 0 68 28 89 76 15 36 27 48
63 64 25 10 68 37 96 59 49 39 88 52 140 48 23 -2 25 1 25 43 0 38 -3 45 -20
47 -11 1 -27 -1 -35 -4z"/>
<path d="M5950 10233 c1 -32 59 -58 85 -39 16 12 16 13 0 29 -16 17 -85 24
-85 10z"/>
<path d="M6792 10210 c-35 -15 -26 -54 12 -58 57 -7 95 16 77 46 -10 17 -62
23 -89 12z"/>
<path d="M5286 10174 c-9 -8 -16 -23 -16 -33 0 -9 -5 -22 -11 -28 -14 -14 -3
-33 19 -33 49 0 82 66 50 98 -16 16 -23 15 -42 -4z"/>
<path d="M5617 10183 c-26 -25 15 -63 68 -63 33 0 40 16 21 45 -12 18 -25 25
-50 25 -18 0 -36 -3 -39 -7z"/>
<path d="M7505 10171 c-51 -5 -60 -9 -60 -26 0 -21 1 -21 110 -14 43 2 65 10
65 23 0 14 -23 27 -43 24 -7 -1 -39 -4 -72 -7z"/>
<path d="M4987 10154 c-4 -4 -7 -20 -7 -36 0 -22 -7 -32 -35 -45 -39 -19 -50
-37 -30 -53 21 -17 62 -1 90 36 14 19 32 34 40 34 22 0 37 36 21 49 -17 14
-69 24 -79 15z"/>
<path d="M6063 10144 c-4 -11 1 -22 12 -31 16 -11 21 -11 34 1 12 12 12 18 1
30 -16 21 -39 20 -47 0z"/>
<path d="M6675 10140 c4 -6 11 -8 16 -5 14 9 11 15 -7 15 -8 0 -12 -5 -9 -10z"/>
<path d="M8332 10128 c2 -16 19 -31 58 -51 61 -31 67 -38 45 -57 -22 -18 -18
-39 10 -52 35 -16 55 3 37 33 -11 18 -11 24 3 39 22 25 16 33 -59 75 -75 41
-99 45 -94 13z"/>
<path d="M5453 10123 c-24 -9 -14 -33 13 -33 18 0 25 5 22 17 -3 18 -16 24
-35 16z"/>
<path d="M7303 10123 c-18 -6 -16 -30 3 -37 19 -7 34 1 34 19 0 15 -19 24 -37
18z"/>
<path d="M5887 10114 c-4 -4 -7 -21 -7 -39 0 -17 -5 -36 -12 -43 -9 -9 -9 -15
-1 -23 17 -17 63 -2 63 19 0 10 5 23 11 29 20 20 6 58 -21 61 -14 2 -29 0 -33
-4z"/>
<path d="M6397 10113 c-21 -20 8 -48 38 -37 25 10 18 44 -8 44 -13 0 -27 -3
-30 -7z"/>
<path d="M7150 10094 c-12 -14 -12 -18 4 -29 23 -18 61 -4 61 21 0 25 -47 31
-65 8z"/>
<path d="M6558 10093 c-24 -6 -23 -30 3 -43 26 -15 49 -6 49 19 0 15 -24 36
-33 30 -1 -1 -10 -3 -19 -6z"/>
<path d="M6882 10089 c-32 -12 -22 -34 14 -34 19 0 30 6 32 16 4 21 -17 29
-46 18z"/>
<path d="M8163 10093 c-31 -12 1 -53 40 -53 22 0 28 27 11 45 -16 15 -29 17
-51 8z"/>
<path d="M6100 10072 c0 -30 24 -46 50 -32 31 17 21 44 -18 48 -26 3 -32 0
-32 -16z"/>
<path d="M5050 10060 c-18 -33 2 -50 47 -40 52 12 83 -2 83 -40 0 -25 4 -30
24 -30 34 0 53 25 35 47 -8 9 -14 30 -14 47 0 25 -4 31 -20 29 -51 -6 -73 -5
-107 2 -31 6 -38 4 -48 -15z"/>
<path d="M7353 10063 c-21 -8 -15 -31 12 -49 20 -13 28 -14 40 -4 19 16 19 25
-1 44 -16 16 -29 19 -51 9z"/>
<path d="M6990 10044 c-16 -18 0 -37 38 -49 33 -10 42 23 13 47 -28 22 -35 22
-51 2z"/>
<path d="M8295 10040 c-10 -17 20 -44 40 -36 9 3 15 14 13 23 -4 21 -43 30
-53 13z"/>
<path d="M6394 10028 c-8 -13 33 -51 50 -45 17 6 20 38 4 48 -19 12 -46 11
-54 -3z"/>
<path d="M7935 10016 c-16 -14 -40 -25 -52 -26 -63 -1 -92 -38 -51 -64 14 -8
26 -6 52 8 42 22 77 18 92 -11 16 -33 45 -63 76 -79 38 -19 48 -18 48 9 -1 29
-21 55 -62 77 -30 16 -33 22 -33 61 0 36 -3 44 -20 47 -11 1 -33 -9 -50 -22z"/>
<path d="M8550 10030 c-13 -9 -12 -13 9 -30 25 -22 61 -27 61 -9 0 10 -39 48
-50 49 -3 0 -12 -5 -20 -10z"/>
<path d="M5494 10005 c-10 -41 -29 -50 -75 -35 -37 13 -41 12 -62 -8 -31 -31
-12 -44 73 -48 l71 -3 20 45 c24 58 24 74 -1 74 -13 0 -22 -9 -26 -25z"/>
<path d="M6217 10023 c-17 -17 -6 -34 20 -31 36 4 45 38 10 38 -13 0 -27 -3
-30 -7z"/>
<path d="M7554 9988 c-6 -10 20 -38 35 -38 17 1 33 20 28 34 -7 18 -52 22 -63
4z"/>
<path d="M4728 9979 c-25 -14 -22 -40 7 -68 36 -33 55 -22 52 31 -2 35 -6 43
-22 45 -11 2 -28 -2 -37 -8z"/>
<path d="M7353 9983 c-23 -9 -14 -43 14 -54 48 -18 72 11 37 45 -16 16 -29 19
-51 9z"/>
<path d="M7664 9978 c-4 -6 4 -20 19 -32 24 -19 25 -23 10 -32 -23 -15 -9 -44
21 -44 29 0 43 17 28 32 -7 7 -7 16 1 29 9 14 7 22 -7 38 -21 23 -61 28 -72 9z"/>
<path d="M7492 9968 c-17 -17 -15 -23 11 -35 28 -13 47 -6 47 17 0 27 -37 39
-58 18z"/>
<path d="M8205 9954 c-27 -13 -50 -29 -50 -36 0 -18 122 -43 141 -28 17 15 19
61 2 78 -17 17 -35 14 -93 -14z"/>
<path d="M4858 9953 c-21 -5 -24 -33 -6 -51 13 -13 56 -16 82 -6 9 3 16 16 16
29 0 32 -37 43 -92 28z"/>
<path d="M5658 9949 c-24 -14 -23 -36 2 -44 24 -8 73 20 67 38 -5 16 -47 20
-69 6z"/>
<path d="M8436 9937 c-25 -18 -15 -61 19 -83 32 -21 55 -12 55 21 0 18 5 25
20 25 13 0 20 7 20 20 0 15 -6 19 -27 18 -16 -1 -37 1 -49 5 -12 4 -28 2 -38
-6z"/>
<path d="M4193 9932 c-43 -7 -55 -52 -14 -52 23 0 58 38 45 48 -5 5 -19 6 -31
4z"/>
<path d="M8646 9924 c-23 -23 -20 -42 13 -75 34 -33 61 -30 61 8 0 54 -46 96
-74 67z"/>
<path d="M7203 9913 c-4 -11 3 -24 21 -40 32 -27 53 -27 70 0 9 15 7 22 -13
38 -29 23 -69 25 -78 2z"/>
<path d="M6131 9911 c-21 -13 -5 -41 22 -41 27 0 52 24 42 40 -8 12 -45 13
-64 1z"/>
<path d="M6540 9906 c0 -16 27 -29 41 -20 19 11 9 34 -16 34 -15 0 -25 -6 -25
-14z"/>
<path d="M5072 9890 c-37 -23 -34 -40 6 -40 30 0 92 34 92 50 0 17 -63 11 -98
-10z"/>
<path d="M5875 9900 c-11 -18 10 -32 41 -28 40 4 38 32 -3 36 -17 2 -34 -2
-38 -8z"/>
<path d="M6850 9895 c-11 -13 -11 -19 3 -32 21 -21 49 -9 45 19 -4 28 -30 35
-48 13z"/>
<path d="M6992 9893 c4 -23 58 -31 58 -10 0 15 -20 27 -47 27 -8 0 -13 -7 -11
-17z"/>
<path d="M8770 9897 c0 -18 28 -42 37 -33 9 8 -9 38 -25 44 -7 2 -12 -3 -12
-11z"/>
<path d="M4712 9858 c-19 -19 -15 -48 6 -48 21 0 52 29 52 48 0 16 -43 15 -58
0z"/>
<path d="M4188 9839 c-42 -4 -91 -15 -109 -24 -18 -10 -41 -14 -55 -11 -16 4
-30 0 -44 -14 -24 -24 -25 -33 -5 -50 12 -10 21 -8 50 10 30 19 45 22 89 16
38 -4 58 -2 72 9 10 8 36 15 57 15 36 0 77 27 77 50 0 11 -20 11 -132 -1z"/>
<path d="M5892 9828 c-18 -18 -15 -38 6 -38 27 0 46 16 39 34 -8 19 -28 21
-45 4z"/>
<path d="M6495 9830 c-8 -14 1 -27 24 -33 26 -6 45 7 38 27 -7 18 -52 22 -62
6z"/>
<path d="M4526 9811 c-19 -20 -14 -41 8 -41 17 0 58 45 49 53 -12 13 -40 7
-57 -12z"/>
<path d="M8610 9808 c0 -29 41 -58 79 -58 29 0 26 24 -5 49 -29 23 -74 28 -74
9z"/>
<path d="M8880 9810 c0 -5 -7 -10 -15 -10 -33 0 -95 -46 -95 -70 0 -19 30 -50
48 -50 6 0 21 18 32 40 11 22 25 40 30 40 6 0 10 7 10 15 0 13 4 14 21 4 32
-16 47 4 18 25 -26 18 -49 21 -49 6z"/>
<path d="M5944 9785 c-4 -9 -2 -21 4 -27 15 -15 44 -1 40 19 -4 23 -36 29 -44
8z"/>
<path d="M5003 9784 c-19 -8 -15 -32 7 -44 26 -14 63 4 58 28 -3 17 -41 26
-65 16z"/>
<path d="M7014 9779 c-8 -14 11 -33 25 -25 6 4 11 11 11 16 0 13 -29 20 -36 9z"/>
<path d="M4231 9767 c-14 -17 -4 -27 25 -27 21 0 39 22 27 34 -11 11 -40 6
-52 -7z"/>
<path d="M5497 9773 c-4 -3 -7 -15 -7 -25 0 -30 54 -21 58 10 3 17 -1 22 -21
22 -13 0 -27 -3 -30 -7z"/>
<path d="M7840 9771 c0 -15 29 -33 45 -27 28 10 17 36 -15 36 -16 0 -30 -4
-30 -9z"/>
<path d="M8294 9769 c-9 -15 23 -40 42 -32 8 3 14 13 12 22 -4 19 -43 27 -54
10z"/>
<path d="M8430 9767 c-42 -21 -35 -88 9 -87 27 1 95 65 88 84 -8 19 -61 21
-97 3z"/>
<path d="M4562 9754 c-12 -8 -22 -24 -22 -34 0 -10 -12 -27 -27 -38 -17 -13
-24 -25 -20 -36 11 -27 37 -18 53 19 8 19 20 35 27 35 18 0 57 38 57 55 0 20
-40 19 -68 -1z"/>
<path d="M7083 9753 c-21 -8 -14 -33 12 -45 21 -9 29 -9 42 4 31 32 -7 60 -54
41z"/>
<path d="M7624 9739 c-3 -6 -2 -15 4 -21 15 -15 56 -5 60 15 3 13 -3 17 -27
17 -16 0 -33 -5 -37 -11z"/>
<path d="M8112 9734 c-25 -17 -29 -39 -7 -48 15 -5 75 38 75 55 0 15 -44 10
-68 -7z"/>
<path d="M3888 9729 c-21 -12 -24 -59 -5 -59 22 0 57 31 57 51 0 21 -24 25
-52 8z"/>
<path d="M4046 9717 c-23 -17 -17 -51 10 -55 25 -4 59 32 51 53 -8 18 -37 20
-61 2z"/>
<path d="M7307 9724 c-14 -14 -6 -31 20 -43 33 -15 54 0 37 27 -12 18 -45 28
-57 16z"/>
<path d="M6078 9709 c-26 -15 -22 -27 15 -49 40 -25 44 -25 57 0 8 15 6 23
-12 40 -24 22 -35 24 -60 9z"/>
<path d="M8263 9713 c-20 -7 -15 -41 6 -53 11 -5 32 -10 46 -10 21 0 26 4 23
22 -3 22 -52 49 -75 41z"/>
<path d="M8610 9694 c0 -31 61 -94 91 -94 31 0 22 31 -23 77 -49 49 -68 54
-68 17z"/>
<path d="M8955 9710 c-8 -13 11 -47 35 -60 10 -5 32 -10 49 -10 38 0 42 29 9
60 -23 21 -82 28 -93 10z"/>
<path d="M4648 9699 c-22 -12 -23 -38 -4 -45 22 -8 56 14 56 36 0 22 -24 26
-52 9z"/>
<path d="M7984 9686 c-18 -14 -18 -16 -2 -32 9 -9 24 -14 32 -11 23 9 32 37
15 48 -19 12 -22 11 -45 -5z"/>
<path d="M5280 9680 c-12 -7 -12 -13 -4 -27 23 -37 83 -19 68 21 -7 18 -41 21
-64 6z"/>
<path d="M3762 9644 c-47 -40 -54 -65 -19 -62 12 1 37 -2 55 -6 39 -9 52 11
28 45 -11 16 -12 27 -5 41 16 30 -13 22 -59 -18z"/>
<path d="M4112 9663 c-12 -2 -30 -16 -39 -30 -16 -24 -16 -26 3 -40 42 -32
138 6 132 51 -2 16 -11 21 -38 22 -19 1 -45 0 -58 -3z"/>
<path d="M7832 9649 c2 -6 8 -10 13 -10 5 0 11 4 13 10 2 6 -4 11 -13 11 -9 0
-15 -5 -13 -11z"/>
<path d="M8907 9653 c-18 -17 -5 -44 28 -57 31 -13 35 -19 35 -51 0 -48 13
-71 50 -84 23 -7 36 -23 51 -56 23 -53 40 -63 74 -45 19 10 27 10 46 -4 13 -9
30 -16 39 -16 8 0 28 -13 43 -30 31 -33 67 -39 87 -15 19 23 -8 48 -74 68 -30
10 -59 24 -66 32 -14 17 -51 20 -66 5 -19 -19 -46 24 -42 67 3 36 5 39 47 49
50 12 59 25 40 60 -13 25 -37 31 -54 15 -6 -5 -21 -11 -35 -13 -16 -2 -26 -11
-30 -28 -8 -35 -41 -33 -58 3 -8 16 -20 31 -28 34 -8 3 -14 15 -14 27 0 12 -5
27 -12 34 -13 13 -50 16 -61 5z"/>
<path d="M3904 9642 c-6 -4 -15 -18 -18 -32 -4 -14 -24 -39 -43 -56 -24 -21
-34 -37 -30 -48 10 -26 38 -19 77 18 34 34 36 34 78 23 49 -13 75 -3 80 31 2
15 -5 23 -32 32 -19 6 -37 17 -40 25 -6 16 -53 20 -72 7z"/>
<path d="M8763 9634 c-9 -23 8 -45 53 -71 97 -56 125 7 30 66 -40 25 -74 27
-83 5z"/>
<path d="M7703 9634 c-20 -9 -15 -42 8 -54 26 -14 51 4 47 34 -3 21 -30 30
-55 20z"/>
<path d="M8523 9614 c-11 -30 56 -60 72 -33 9 14 -24 49 -47 49 -10 0 -21 -7
-25 -16z"/>
<path d="M4940 9605 c-27 -32 20 -109 63 -103 29 4 34 35 9 61 -10 12 -22 30
-25 40 -8 21 -30 22 -47 2z"/>
<path d="M7054 9605 c-4 -9 -2 -21 4 -27 16 -16 47 -5 47 17 0 26 -42 34 -51
10z"/>
<path d="M4476 9594 c-19 -18 -13 -34 13 -34 20 0 41 19 41 37 0 18 -35 16
-54 -3z"/>
<path d="M4306 9568 c-25 -14 -21 -48 7 -48 25 0 47 17 47 36 0 16 -33 24 -54
12z"/>
<path d="M4726 9564 c-19 -19 -20 -25 -3 -48 19 -26 61 -18 65 12 7 44 -32 67
-62 36z"/>
<path d="M5484 9566 c-4 -9 -1 -23 6 -31 7 -8 10 -26 6 -40 -5 -20 -3 -25 14
-25 20 0 29 19 33 75 2 26 -2 30 -26 33 -18 2 -29 -2 -33 -12z"/>
<path d="M4233 9563 c-7 -2 -13 -11 -13 -20 0 -21 44 -13 48 10 3 17 -10 21
-35 10z"/>
<path d="M7803 9559 c-16 -16 -5 -39 17 -39 25 0 35 18 20 35 -15 18 -22 19
-37 4z"/>
<path d="M3652 9552 c-20 -13 -33 -72 -21 -94 9 -16 18 -19 46 -15 37 6 73 32
73 51 0 14 -58 66 -74 66 -6 0 -17 -4 -24 -8z"/>
<path d="M8347 9546 c-6 -15 22 -61 49 -80 28 -20 156 -16 152 4 -2 10 -20 17
-59 20 -59 5 -84 19 -94 51 -7 22 -40 26 -48 5z"/>
<path d="M4845 9534 c-12 -12 -13 -19 -4 -30 21 -26 79 -14 79 16 0 31 -48 40
-75 14z"/>
<path d="M4393 9529 c-25 -9 -31 -44 -9 -52 17 -7 56 19 56 37 0 19 -20 25
-47 15z"/>
<path d="M9246 9526 c3 -8 17 -22 30 -31 30 -19 31 -38 3 -57 -19 -12 -20 -17
-10 -36 14 -27 56 -39 76 -22 8 7 15 27 15 45 0 26 -9 41 -45 74 -44 41 -80
55 -69 27z"/>
<path d="M3938 9493 c-29 -18 -42 -39 -32 -54 8 -14 39 -11 89 11 34 14 46 25
43 37 -4 25 -65 28 -100 6z"/>
<path d="M8702 9498 c-15 -15 12 -48 40 -48 23 0 23 22 0 43 -22 20 -25 20
-40 5z"/>
<path d="M5585 9446 c-24 -17 -13 -46 18 -46 34 0 54 25 37 45 -15 19 -31 19
-55 1z"/>
<path d="M4140 9430 c-12 -23 -6 -40 15 -40 18 0 45 28 45 46 0 22 -48 17 -60
-6z"/>
<path d="M7257 9444 c-12 -12 6 -34 29 -34 17 0 24 6 24 20 0 14 -7 20 -23 20
-13 0 -26 -3 -30 -6z"/>
<path d="M8797 9436 c-3 -8 2 -21 12 -30 18 -16 123 -56 148 -56 24 0 14 31
-21 66 -30 30 -40 34 -84 34 -34 0 -52 -5 -55 -14z"/>
<path d="M3545 9420 c-22 -10 -48 -21 -57 -24 -20 -6 -24 -46 -7 -63 25 -25
119 42 119 84 0 27 -3 27 -55 3z"/>
<path d="M3752 9396 c-6 -14 -24 -33 -39 -42 -77 -48 -94 -84 -40 -84 43 0
124 51 133 84 14 57 -31 92 -54 42z"/>
<path d="M8095 9410 c-8 -13 1 -27 25 -40 22 -12 52 12 44 35 -7 17 -59 20
-69 5z"/>
<path d="M4003 9393 c-7 -3 -13 -14 -13 -25 0 -14 5 -18 16 -14 9 3 18 6 20 6
7 0 4 29 -3 33 -5 2 -14 2 -20 0z"/>
<path d="M4332 9383 c-27 -23 -32 -56 -10 -61 25 -5 78 35 78 59 0 25 -40 26
-68 2z"/>
<path d="M9440 9352 c0 -4 5 -13 12 -20 9 -9 8 -15 -6 -25 -15 -11 -17 -17 -7
-35 14 -26 36 -28 49 -5 8 14 12 13 27 -11 15 -22 16 -31 6 -52 -15 -34 -15
-33 24 -94 19 -30 35 -64 35 -77 0 -22 33 -53 57 -53 21 0 15 30 -13 63 -16
19 -24 38 -20 51 3 11 -4 40 -14 64 -11 25 -20 54 -20 66 0 13 -23 44 -58 79
-55 55 -72 66 -72 49z"/>
<path d="M8294 9329 c-9 -16 31 -53 50 -46 21 8 21 43 0 51 -24 9 -42 7 -50
-5z"/>
<path d="M3513 9311 c-25 -12 -52 -35 -68 -59 -27 -41 -72 -62 -132 -62 -33 0
-68 -31 -60 -53 3 -8 24 -17 46 -21 52 -8 95 13 123 60 11 19 24 34 30 34 5 0
22 8 36 19 15 10 39 21 54 25 34 8 54 41 37 62 -14 18 -15 18 -66 -5z"/>
<path d="M3795 9306 c-23 -16 -14 -46 14 -46 18 0 51 34 51 52 0 13 -45 9 -65
-6z"/>
<path d="M4520 9305 c-18 -21 -5 -45 24 -45 26 0 52 32 41 50 -9 15 -51 12
-65 -5z"/>
<path d="M9191 9306 c-15 -17 10 -46 40 -46 26 0 22 27 -7 47 -18 12 -23 12
-33 -1z"/>
<path d="M7550 9294 c-18 -21 9 -49 39 -39 23 7 27 25 9 43 -16 16 -33 15 -48
-4z"/>
<path d="M9077 9303 c-11 -11 -8 -31 8 -47 19 -18 45 -11 45 13 0 30 -35 52
-53 34z"/>
<path d="M8965 9290 c-9 -15 14 -40 36 -40 22 0 31 13 23 34 -7 18 -49 22 -59
6z"/>
<path d="M8830 9265 c-7 -9 -24 -14 -39 -13 -32 4 -40 -25 -15 -53 22 -24 64
-26 64 -2 0 9 7 24 16 34 16 18 13 49 -4 49 -5 0 -15 -7 -22 -15z"/>
<path d="M9330 9225 c-16 -20 -5 -47 30 -73 21 -16 30 -31 30 -51 0 -44 10
-61 35 -61 31 0 37 23 20 73 -8 23 -15 52 -15 64 0 47 -72 82 -100 48z"/>
<path d="M3937 9223 c-11 -10 -8 -41 5 -49 13 -8 51 33 42 47 -6 11 -38 12
-47 2z"/>
<path d="M9191 9217 c-18 -22 18 -62 48 -52 33 10 26 59 -10 63 -14 2 -31 -3
-38 -11z"/>
<path d="M4178 9199 c-25 -14 -23 -49 1 -49 23 0 53 28 48 44 -5 15 -28 18
-49 5z"/>
<path d="M5002 9199 c-26 -10 -25 -32 2 -37 17 -4 46 14 46 28 0 13 -24 18
-48 9z"/>
<path d="M8131 9196 c-7 -8 -15 -33 -18 -56 -5 -32 -3 -40 10 -40 9 0 19 11
23 24 3 13 17 29 30 35 33 15 28 45 -7 49 -14 2 -31 -4 -38 -12z"/>
<path d="M8974 9166 c-8 -21 3 -36 27 -36 15 0 20 6 17 22 -4 27 -35 37 -44
14z"/>
<path d="M3582 9160 c-12 -5 -37 -9 -55 -8 -55 2 -102 -39 -82 -72 20 -32 180
25 180 65 0 22 -13 27 -43 15z"/>
<path d="M4355 9156 c-16 -12 -18 -19 -9 -32 15 -25 29 -27 48 -8 35 34 0 69
-39 40z"/>
<path d="M3700 9132 c-25 -20 -20 -42 9 -42 22 0 41 19 41 42 0 23 -22 23 -50
0z"/>
<path d="M3946 9137 c-25 -19 -10 -49 23 -45 20 2 27 9 29 31 3 21 -1 27 -15
27 -11 0 -27 -6 -37 -13z"/>
<path d="M8675 9130 c-10 -17 14 -40 42 -40 36 0 29 44 -9 48 -14 2 -29 -2
-33 -8z"/>
<path d="M3792 9118 c-22 -28 -18 -68 8 -68 24 0 53 41 44 64 -7 19 -37 21
-52 4z"/>
<path d="M4264 9115 c-7 -18 3 -35 21 -35 15 0 28 27 19 41 -8 14 -34 11 -40
-6z"/>
<path d="M8594 9085 c-8 -19 13 -45 36 -45 22 0 30 19 18 43 -11 21 -47 23
-54 2z"/>
<path d="M9680 9093 c0 -5 9 -23 20 -41 11 -18 20 -44 20 -57 0 -32 33 -65 65
-65 14 0 30 -9 37 -20 15 -23 28 -26 28 -6 0 8 -17 29 -39 48 -21 18 -46 49
-56 68 -27 54 -75 100 -75 73z"/>
<path d="M9166 9060 c-32 -33 -28 -50 15 -50 58 0 89 36 57 68 -19 19 -41 14
-72 -18z"/>
<path d="M9310 9060 c-13 -9 -11 -14 13 -35 32 -28 65 -32 74 -9 12 31 -56 65
-87 44z"/>
<path d="M9510 9056 c0 -15 18 -31 26 -23 7 7 -7 37 -17 37 -5 0 -9 -6 -9 -14z"/>
<path d="M8135 9040 c-9 -15 14 -40 35 -40 22 0 32 24 17 39 -14 14 -44 14
-52 1z"/>
<path d="M3147 9022 c-29 -32 -14 -92 23 -92 34 0 55 71 28 98 -17 17 -32 15
-51 -6z"/>
<path d="M3272 9004 c-39 -27 -24 -60 22 -48 29 7 41 31 25 50 -15 18 -20 17
-47 -2z"/>
<path d="M8620 8990 c0 -11 7 -20 15 -20 8 0 15 9 15 20 0 11 -7 20 -15 20 -8
0 -15 -9 -15 -20z"/>
<path d="M3482 8984 c-24 -16 -27 -54 -6 -61 20 -7 68 42 61 60 -8 21 -26 21
-55 1z"/>
<path d="M3340 8948 c-26 -42 -23 -82 7 -86 29 -4 55 36 51 80 -4 46 -32 49
-58 6z"/>
<path d="M8835 8960 c-10 -17 20 -44 40 -36 9 3 15 14 13 23 -4 21 -43 30 -53
13z"/>
<path d="M9487 8946 c-10 -26 22 -56 59 -56 31 0 34 3 34 29 0 17 -6 31 -16
35 -28 11 -72 6 -77 -8z"/>
<path d="M3552 8938 c-10 -13 -15 -33 -13 -55 2 -21 30 -15 46 11 25 38 -5 78
-33 44z"/>
<path d="M3814 8940 c-25 -10 -35 -32 -24 -51 13 -20 64 0 68 27 4 25 -14 35
-44 24z"/>
<path d="M9318 8934 c-21 -20 47 -92 77 -80 24 9 17 32 -16 60 -30 25 -50 32
-61 20z"/>
<path d="M9708 8923 c-39 -10 -13 -43 33 -43 23 0 26 35 3 44 -9 3 -16 5 -17
5 -1 -1 -10 -3 -19 -6z"/>
<path d="M9420 8910 c0 -5 7 -10 16 -10 8 0 12 5 9 10 -3 6 -10 10 -16 10 -5
0 -9 -4 -9 -10z"/>
<path d="M3044 8892 c-13 -9 -44 -54 -44 -64 0 -15 27 -8 44 11 19 20 19 66 0
53z"/>
<path d="M9165 8891 c-7 -12 24 -43 39 -38 6 2 12 13 14 25 3 18 -2 22 -22 22
-14 0 -27 -4 -31 -9z"/>
<path d="M9650 8885 c0 -8 7 -15 15 -15 8 0 15 7 15 15 0 8 -7 15 -15 15 -8 0
-15 -7 -15 -15z"/>
<path d="M3102 8880 c-26 -11 -47 -52 -39 -74 16 -41 87 9 87 60 0 25 -11 28
-48 14z"/>
<path d="M3594 8867 c-34 -29 -27 -57 14 -57 36 0 52 16 52 52 0 36 -28 38
-66 5z"/>
<path d="M8637 8873 c-14 -13 -7 -50 13 -71 26 -27 47 -28 55 -2 13 41 -42
100 -68 73z"/>
<path d="M9104 8846 c-8 -21 13 -46 38 -46 30 0 21 54 -10 58 -13 2 -25 -3
-28 -12z"/>
<path d="M4213 8843 c-17 -6 -17 -43 0 -43 19 0 36 20 30 36 -5 15 -10 16 -30
7z"/>
<path d="M3874 8812 c-16 -11 -32 -45 -27 -59 3 -7 16 -13 29 -13 17 0 27 -8
34 -25 10 -27 38 -33 58 -13 19 19 14 36 -15 50 -15 7 -29 22 -32 33 -3 18
-18 35 -31 35 -3 0 -10 -4 -16 -8z"/>
<path d="M9664 8806 c-8 -21 28 -62 63 -71 35 -8 63 3 63 25 0 40 -113 81
-126 46z"/>
<path d="M9839 8798 c-6 -12 -12 -40 -12 -62 0 -31 6 -44 26 -61 15 -11 29
-35 33 -55 4 -19 13 -47 20 -62 8 -15 14 -43 14 -63 0 -28 7 -44 31 -66 32
-29 53 -36 63 -20 3 5 25 7 49 4 31 -4 49 -13 69 -37 24 -27 27 -29 34 -13 8
22 -21 88 -52 118 -28 26 -68 28 -95 3 -31 -28 -54 -8 -55 47 -1 70 -3 76 -30
108 -20 24 -25 39 -22 63 13 83 -42 154 -73 96z"/>
<path d="M3302 8774 c-27 -19 -27 -25 -2 -54 26 -30 26 -31 -10 -62 -34 -30
-39 -58 -11 -58 11 0 28 15 41 34 11 19 30 38 40 41 24 8 36 65 21 94 -14 25
-48 27 -79 5z"/>
<path d="M9603 8774 c-11 -30 10 -69 37 -69 32 0 36 24 10 58 -25 31 -38 34
-47 11z"/>
<path d="M3602 8758 c-15 -15 -16 -35 -2 -43 16 -10 50 14 50 35 0 23 -29 27
-48 8z"/>
<path d="M3060 8747 c-28 -14 -51 -53 -43 -73 15 -40 107 15 101 60 -4 25 -25
30 -58 13z"/>
<path d="M9335 8750 c-9 -15 14 -40 36 -40 27 0 35 21 14 37 -22 16 -41 17
-50 3z"/>
<path d="M9493 8722 c-5 -4 -14 -20 -20 -37 -7 -22 -17 -31 -36 -33 -33 -4
-37 -36 -6 -52 28 -16 48 -6 60 30 7 19 18 30 30 30 14 0 19 7 19 25 0 26 -29
48 -47 37z"/>
<path d="M9970 8711 c0 -21 13 -41 26 -41 17 0 17 5 4 31 -11 20 -30 26 -30
10z"/>
<path d="M3176 8697 c-22 -16 -18 -50 6 -55 20 -4 61 34 55 51 -5 18 -39 20
-61 4z"/>
<path d="M3519 8692 c-25 -21 -21 -52 9 -52 25 0 42 19 42 47 0 28 -20 30 -51
5z"/>
<path d="M2900 8684 c-11 -12 -10 -18 3 -31 21 -21 47 -9 47 22 0 29 -29 35
-50 9z"/>
<path d="M9120 8665 c0 -8 7 -15 15 -15 8 0 15 7 15 15 0 8 -7 15 -15 15 -8 0
-15 -7 -15 -15z"/>
<path d="M9767 8663 c-15 -14 -6 -53 15 -67 27 -19 38 -12 38 23 0 39 -32 66
-53 44z"/>
<path d="M2859 8603 c-15 -4 -99 -140 -99 -162 0 -20 22 -12 60 22 21 17 50
40 64 50 17 12 26 27 26 45 0 26 -16 54 -29 51 -4 -1 -13 -3 -22 -6z"/>
<path d="M3042 8598 c-17 -23 -42 -77 -42 -93 0 -28 42 -13 67 24 29 42 31 81
4 81 -10 0 -23 -6 -29 -12z"/>
<path d="M9597 8596 c-8 -20 21 -56 44 -56 24 0 26 32 3 54 -19 20 -40 21 -47
2z"/>
<path d="M9134 8565 c-9 -24 22 -53 38 -37 9 9 10 17 2 29 -15 24 -33 27 -40
8z"/>
<path d="M10066 8572 c-8 -13 10 -52 24 -52 14 0 12 23 -3 45 -10 12 -16 14
-21 7z"/>
<path d="M3140 8562 c-28 -9 -50 -35 -50 -59 0 -30 25 -30 41 0 7 12 19 27 28
34 19 14 4 33 -19 25z"/>
<path d="M9737 8543 c-15 -15 -6 -82 16 -114 32 -48 52 -45 50 7 -3 75 -40
134 -66 107z"/>
<path d="M3200 8517 c0 -30 10 -40 27 -26 20 18 16 49 -7 49 -14 0 -20 -7 -20
-23z"/>
<path d="M2916 8517 c-15 -11 -17 -20 -11 -43 4 -16 8 -49 9 -74 1 -42 3 -45
31 -48 35 -3 75 28 75 58 0 11 -11 27 -24 36 -16 10 -26 27 -28 47 -3 36 -23
45 -52 24z"/>
<path d="M3592 8451 c-23 -14 -10 -46 18 -46 20 0 26 6 28 28 3 21 -1 27 -15
27 -10 0 -24 -4 -31 -9z"/>
<path d="M3230 8435 c-15 -18 -6 -45 14 -45 19 0 46 27 46 46 0 19 -44 18 -60
-1z"/>
<path d="M9512 8428 c2 -12 11 -24 21 -26 14 -3 18 1 15 20 -2 12 -11 24 -21
26 -14 3 -18 -1 -15 -20z"/>
<path d="M9590 8421 c0 -19 26 -41 50 -41 6 0 10 12 8 28 -2 21 -9 28 -30 30
-23 3 -28 -1 -28 -17z"/>
<path d="M3322 8411 c-20 -12 -10 -46 13 -46 14 0 21 8 23 28 3 28 -10 35 -36
18z"/>
<path d="M2703 8363 c-9 -21 -19 -41 -21 -45 -2 -5 3 -8 12 -8 16 0 46 48 46
75 0 27 -19 16 -37 -22z"/>
<path d="M2785 8366 c-31 -31 -34 -66 -5 -66 20 0 63 56 57 74 -7 20 -27 17
-52 -8z"/>
<path d="M3376 8355 c-22 -22 -20 -62 3 -75 28 -14 53 13 49 54 -3 36 -27 45
-52 21z"/>
<path d="M3070 8345 c-16 -19 -18 -77 -3 -82 20 -7 53 35 53 67 0 23 -5 30
-19 30 -10 0 -24 -7 -31 -15z"/>
<path d="M9672 8352 c-18 -12 -6 -37 23 -50 20 -9 26 -8 34 6 19 35 -21 66
-57 44z"/>
<path d="M10183 8349 c-18 -18 -16 -44 3 -63 39 -39 63 9 27 53 -15 18 -20 20
-30 10z"/>
<path d="M9020 8335 c-11 -13 -11 -18 2 -31 20 -20 50 -7 46 20 -4 26 -30 32
-48 11z"/>
<path d="M9457 8344 c-14 -14 -7 -43 13 -54 23 -12 35 4 28 37 -3 18 -29 29
-41 17z"/>
<path d="M10082 8338 c-35 -35 6 -139 43 -108 30 25 15 120 -20 120 -6 0 -16
-5 -23 -12z"/>
<path d="M2851 8326 c-10 -11 -10 -20 0 -37 9 -17 9 -34 -1 -74 -15 -61 -6
-125 16 -125 23 0 57 86 49 124 -3 17 -9 51 -13 76 -7 48 -29 63 -51 36z"/>
<path d="M9943 8313 c-3 -9 -1 -24 5 -34 7 -10 12 -30 12 -45 0 -42 40 -125
59 -122 22 4 25 42 6 71 -9 15 -15 41 -14 65 2 22 -3 47 -9 55 -19 23 -52 28
-59 10z"/>
<path d="M9170 8282 c0 -25 19 -42 47 -42 25 0 29 11 13 41 -14 25 -60 26 -60
1z"/>
<path d="M9874 8265 c-7 -18 13 -45 33 -45 19 0 28 27 13 45 -16 19 -39 19
-46 0z"/>
<path d="M2630 8218 c-21 -35 -35 -86 -26 -95 3 -4 23 -1 45 5 54 17 68 15 74
-8 12 -47 71 -29 65 19 -2 21 -8 26 -32 26 -24 0 -31 6 -40 33 -20 59 -57 68
-86 20z"/>
<path d="M10153 8224 c-3 -9 -17 -27 -29 -40 -30 -29 -30 -65 -2 -116 25 -44
18 -71 -21 -76 -12 -2 -29 -14 -38 -28 -13 -21 -21 -23 -49 -18 -39 7 -41 0
-16 -39 27 -40 54 -58 69 -45 7 6 13 16 13 22 0 12 55 59 81 68 21 8 28 59 17
115 -11 49 4 103 28 103 17 0 18 42 2 58 -17 17 -48 15 -55 -4z"/>
<path d="M3010 8200 c-8 -15 -8 -30 0 -55 19 -58 64 -53 64 8 0 59 -42 89 -64
47z"/>
<path d="M9723 8194 c-10 -27 14 -64 42 -64 29 0 45 41 25 65 -16 20 -59 19
-67 -1z"/>
<path d="M10240 8158 c-11 -12 -20 -32 -20 -45 0 -65 67 -118 97 -77 26 36
-10 143 -49 144 -4 0 -16 -10 -28 -22z"/>
<path d="M3222 8148 c-20 -20 -15 -58 7 -58 20 0 31 18 31 51 0 21 -20 25 -38
7z"/>
<path d="M9907 8146 c-6 -15 22 -46 41 -46 13 0 16 19 6 44 -8 20 -40 21 -47
2z"/>
<path d="M9577 8104 c-11 -12 -8 -41 6 -52 18 -16 39 1 35 29 -3 23 -27 37
-41 23z"/>
<path d="M3425 8064 c-19 -19 -19 -38 0 -54 20 -16 45 3 45 35 0 29 -25 39
-45 19z"/>
<path d="M2797 8052 c-22 -24 -21 -35 3 -57 11 -10 20 -24 20 -30 0 -23 30
-25 50 -5 26 26 25 33 -11 75 -36 40 -40 42 -62 17z"/>
<path d="M2593 8035 c-12 -8 -24 -29 -28 -46 -5 -22 -15 -34 -36 -41 -17 -6
-31 -19 -35 -33 -12 -47 23 -62 50 -21 8 14 28 31 43 38 32 15 75 75 71 97 -4
22 -38 25 -65 6z"/>
<path d="M9866 8035 c-8 -21 37 -70 57 -62 23 9 21 32 -5 57 -26 24 -44 26
-52 5z"/>
<path d="M9440 8030 c-19 -12 -4 -60 19 -60 21 0 30 16 23 42 -5 20 -24 29
-42 18z"/>
<path d="M9663 8003 c-19 -7 -16 -31 6 -42 26 -14 50 12 31 34 -13 16 -17 17
-37 8z"/>
<path d="M3006 7984 c-19 -19 -17 -33 7 -48 24 -15 56 17 41 41 -15 24 -29 26
-48 7z"/>
<path d="M10272 7988 c-17 -17 -15 -32 8 -53 16 -15 22 -16 35 -5 16 14 11 49
-9 62 -15 10 -20 10 -34 -4z"/>
<path d="M10348 7984 c-3 -3 -1 -21 5 -40 7 -23 7 -44 0 -67 -12 -40 -2 -73
26 -82 36 -11 44 3 36 64 -12 93 -42 150 -67 125z"/>
<path d="M2646 7964 c-20 -20 -20 -33 0 -41 20 -8 49 21 41 41 -8 20 -21 20
-41 0z"/>
<path d="M2770 7941 c-5 -11 -7 -39 -4 -64 6 -41 4 -47 -25 -73 -33 -29 -39
-52 -19 -72 17 -17 63 -15 78 3 14 17 26 161 16 199 -8 31 -31 34 -46 7z"/>
<path d="M9831 7886 c-17 -20 -3 -46 25 -46 26 0 33 27 12 48 -15 15 -23 15
-37 -2z"/>
<path d="M9424 7866 c-3 -8 -4 -23 -2 -33 5 -25 51 -25 56 0 7 36 -42 65 -54
33z"/>
<path d="M10207 7862 c-20 -22 -21 -51 -2 -75 20 -28 48 -17 61 23 20 60 -20
95 -59 52z"/>
<path d="M8534 7840 c-113 -17 -186 -52 -268 -129 -113 -107 -175 -237 -196
-413 -14 -118 0 -223 50 -374 74 -226 115 -301 388 -714 108 -162 208 -320
223 -352 64 -130 78 -291 35 -384 -73 -156 -204 -196 -363 -109 -79 42 -135
93 -205 185 -27 36 -54 65 -59 65 -6 0 -25 -27 -43 -60 -18 -33 -63 -115 -99
-181 -37 -67 -67 -126 -67 -131 0 -10 100 -102 208 -191 106 -87 215 -128 372
-138 314 -21 528 120 621 408 30 94 43 254 30 367 -27 225 -83 349 -327 712
-97 145 -200 305 -228 354 -161 278 -207 521 -124 645 29 42 98 79 165 87 92
10 180 -48 270 -180 18 -26 39 -47 46 -47 7 0 25 12 39 28 37 38 158 232 158
252 0 25 -55 106 -106 155 -25 25 -74 58 -108 75 -113 54 -303 86 -412 70z
m476 -314 c0 -39 -11 -50 -40 -41 -15 5 -20 15 -20 41 0 31 2 34 30 34 28 0
30 -3 30 -34z m-680 -466 c0 -5 -2 -10 -4 -10 -3 0 -8 5 -11 10 -3 6 -1 10 4
10 6 0 11 -4 11 -10z m315 -660 c-5 -28 -3 -39 8 -43 8 -3 15 -17 15 -31 0
-23 -4 -25 -27 -19 -14 3 -29 8 -33 10 -10 5 -8 61 5 105 8 31 13 36 24 26 10
-8 12 -23 8 -48z m205 -280 c0 -5 -2 -10 -4 -10 -3 0 -8 5 -11 10 -3 6 -1 10
4 10 6 0 11 -4 11 -10z m-20 -45 c0 -9 -6 -12 -15 -9 -8 4 -15 10 -15 15 0 5
7 9 15 9 8 0 15 -7 15 -15z m99 -159 c13 -16 5 -46 -13 -46 -18 0 -36 21 -36
42 0 22 32 24 49 4z m66 -273 c-13 -18 -25 -39 -28 -46 -3 -9 -7 -9 -19 1 -14
11 -14 16 -1 42 8 17 24 37 36 45 32 22 39 -1 12 -42z m-644 -403 c10 -6 19
-17 19 -24 0 -17 22 -26 65 -26 39 0 51 -12 30 -30 -7 -6 -11 -18 -8 -27 5
-12 1 -14 -15 -9 -17 6 -24 2 -34 -18 -15 -34 -41 -35 -32 -2 6 27 -28 72 -47
61 -10 -7 -39 12 -39 25 0 5 12 13 28 18 15 6 21 11 15 11 -7 1 -13 8 -13 16
0 18 5 18 31 5z m-153 -22 c-2 -6 -12 -16 -21 -22 -13 -8 -20 -7 -27 4 -12 20
-3 30 26 30 15 0 24 -5 22 -12z m402 -88 c0 -5 -2 -10 -4 -10 -3 0 -8 5 -11
10 -3 6 -1 10 4 10 6 0 11 -4 11 -10z m128 -28 c2 -7 -3 -12 -12 -12 -9 0 -16
7 -16 16 0 17 22 14 28 -4z m-118 -2 c0 -5 -5 -10 -11 -10 -5 0 -7 5 -4 10 3
6 8 10 11 10 2 0 4 -4 4 -10z m-82 -12 c16 -16 15 -28 -3 -28 -8 0 -15 2 -15
4 0 2 -3 11 -6 20 -7 19 7 21 24 4z"/>
<path d="M10020 7835 c-10 -12 -9 -20 4 -40 22 -34 46 -33 46 3 0 26 -15 52
-31 52 -4 0 -12 -7 -19 -15z"/>
<path d="M3244 7826 c-9 -24 3 -47 21 -40 18 7 16 45 -2 52 -7 2 -16 -3 -19
-12z"/>
<path d="M2935 7814 c-9 -9 -14 -23 -11 -31 3 -8 6 -17 6 -19 0 -2 7 -4 15 -4
18 0 38 37 31 56 -7 18 -21 18 -41 -2z"/>
<path d="M3143 7804 c-7 -20 22 -45 44 -37 8 3 13 15 11 27 -4 27 -45 35 -55
10z"/>
<path d="M3850 7795 c-4 -11 -24 -67 -44 -125 -21 -58 -44 -122 -52 -143 -8
-21 -12 -43 -9 -48 8 -12 68 -12 250 2 108 8 216 9 388 1 131 -5 240 -12 242
-14 9 -9 -203 -576 -366 -983 -23 -55 -52 -131 -66 -170 -14 -38 -34 -90 -45
-114 -85 -188 -330 -830 -394 -1029 l-32 -102 38 -58 c73 -109 36 -101 415
-89 182 6 411 11 510 11 99 1 186 3 192 4 20 3 163 303 163 341 0 17 -175 14
-271 -5 -72 -13 -107 -14 -262 -4 -98 7 -194 9 -212 6 -41 -8 -53 9 -61 82 -5
49 15 114 181 577 31 88 81 228 110 310 53 150 220 574 290 735 20 47 48 112
62 145 70 166 229 468 265 504 21 21 38 47 38 58 0 17 -53 75 -104 114 -16 12
-111 14 -619 14 -590 0 -600 0 -607 -20z m1138 -138 c3 -24 0 -27 -28 -27 -28
0 -31 2 -24 23 14 44 47 47 52 4z m-724 7 c9 -24 7 -28 -9 -14 -17 14 -20 30
-6 30 5 0 12 -7 15 -16z m86 8 c0 -13 -12 -22 -22 -16 -10 6 -1 24 13 24 5 0
9 -4 9 -8z m-290 -20 c0 -5 -9 -17 -20 -27 -19 -18 -20 -17 -20 2 0 11 3 23 7
26 9 10 33 9 33 -1z m455 -22 c-3 -5 -11 -10 -16 -10 -6 0 -7 5 -4 10 3 6 11
10 16 10 6 0 7 -4 4 -10z m335 -50 c0 -5 -5 -10 -11 -10 -5 0 -7 5 -4 10 3 6
8 10 11 10 2 0 4 -4 4 -10z m40 -120 c0 -5 -7 -10 -15 -10 -8 0 -15 5 -15 10
0 6 7 10 15 10 8 0 15 -4 15 -10z m-68 -135 c-2 -5 -20 -9 -42 -7 -21 1 -41
-2 -45 -8 -8 -13 -25 -13 -25 0 0 6 7 10 15 10 8 0 15 5 15 11 0 6 17 9 43 7
23 -2 41 -7 39 -13z m-42 -53 c0 -13 -12 -22 -22 -16 -10 6 -1 24 13 24 5 0 9
-4 9 -8z m-98 -142 c-12 -12 -22 -25 -22 -30 0 -6 -7 -10 -15 -10 -18 0 -18 1
-5 34 7 19 17 26 37 26 l27 0 -22 -20z m-32 -215 c0 -8 -4 -15 -10 -15 -5 0
-10 7 -10 15 0 8 5 15 10 15 6 0 10 -7 10 -15z m-230 -437 c0 -13 -23 -5 -28
10 -2 7 2 10 12 6 9 -3 16 -11 16 -16z m-64 -205 c-10 -10 -19 5 -10 18 6 11
8 11 12 0 2 -7 1 -15 -2 -18z m-46 -238 c0 -8 -7 -15 -16 -15 -14 0 -14 3 -4
15 7 8 14 15 16 15 2 0 4 -7 4 -15z m-40 -56 c0 -25 -33 -22 -38 4 -2 12 3 17
17 17 15 0 21 -6 21 -21z m-39 -39 l24 -19 -22 -1 c-12 0 -25 -5 -29 -12 -5
-8 -11 -5 -20 7 -10 14 -11 22 -3 32 15 17 23 17 50 -7z m-121 -280 c0 -5 -4
-10 -10 -10 -5 0 -10 5 -10 10 0 6 5 10 10 10 6 0 10 -4 10 -10z m-30 -409 c0
-6 -4 -13 -10 -16 -5 -3 -10 1 -10 9 0 9 5 16 10 16 6 0 10 -4 10 -9z m-60
-87 c0 -9 -5 -14 -12 -12 -18 6 -21 28 -4 28 9 0 16 -7 16 -16z m550 -14 c0
-5 -4 -10 -10 -10 -5 0 -10 5 -10 10 0 6 5 10 10 10 6 0 10 -4 10 -10z m-590
-25 c0 -8 -7 -15 -15 -15 -16 0 -20 12 -8 23 11 12 23 8 23 -8z m38 -23 c2 -7
-3 -12 -12 -12 -9 0 -16 7 -16 16 0 17 22 14 28 -4z m350 -14 c6 -6 32 -11 56
-9 54 2 67 -12 26 -29 -24 -10 -33 -10 -45 0 -8 6 -32 13 -54 14 -44 2 -57 9
-46 25 8 15 48 14 63 -1z"/>
<path d="M5442 7802 c-2 -7 12 -52 32 -100 36 -85 40 -102 96 -462 5 -36 23
-177 40 -315 17 -137 39 -306 51 -375 11 -69 25 -172 30 -230 14 -141 57 -496
73 -595 7 -44 27 -165 44 -270 49 -298 72 -450 72 -473 0 -39 41 -55 131 -50
44 3 84 9 90 15 5 5 22 54 38 109 26 90 132 446 219 734 29 99 63 217 151 525
19 66 40 78 53 30 5 -16 40 -164 79 -327 67 -285 87 -361 179 -673 22 -77 50
-183 62 -235 11 -52 27 -112 35 -133 l15 -38 147 3 146 3 2 50 c7 140 75 797
107 1030 8 61 31 229 51 375 20 146 40 305 46 355 5 49 16 132 24 185 8 52 19
138 25 190 18 162 69 409 112 542 23 70 38 131 34 135 -9 9 -436 7 -445 -2 -3
-3 -13 -101 -23 -218 -22 -276 -53 -567 -78 -742 -11 -77 -26 -198 -34 -270
-18 -152 -54 -425 -62 -473 -4 -18 -11 -31 -18 -29 -19 6 -135 402 -170 584
-18 91 -60 278 -98 442 l-32 134 -56 25 c-59 26 -134 40 -143 26 -15 -24 -198
-688 -297 -1075 -18 -70 -36 -133 -41 -140 -26 -42 -49 75 -89 460 -28 267
-39 357 -76 602 -8 53 -14 128 -14 166 0 39 -4 93 -10 121 -16 85 -30 213 -32
294 -1 43 -4 82 -7 87 -3 5 -107 10 -230 12 -178 3 -225 1 -229 -9z m1958
-188 c0 -8 -5 -12 -10 -9 -6 4 -8 11 -5 16 9 14 15 11 15 -7z m0 -54 c0 -5 -4
-10 -10 -10 -5 0 -10 5 -10 10 0 6 5 10 10 10 6 0 10 -4 10 -10z m-1733 -47
c-9 -9 -19 -14 -23 -11 -10 10 6 28 24 28 15 0 15 -1 -1 -17z m1733 7 c0 -5
-7 -10 -16 -10 -8 0 -12 5 -9 10 3 6 10 10 16 10 5 0 9 -4 9 -10z m-1652 -137
c2 -8 -5 -13 -17 -13 -21 0 -35 13 -24 24 10 10 36 3 41 -11z m1622 -83 c0 -5
-7 -10 -16 -10 -8 0 -12 5 -9 10 3 6 10 10 16 10 5 0 9 -4 9 -10z m-20 -49 c0
-5 -7 -14 -15 -21 -12 -10 -19 -10 -28 -1 -9 9 -9 14 3 21 19 12 40 13 40 1z
m-35 -62 c9 -13 -25 -38 -42 -32 -7 3 -13 14 -13 24 0 13 7 19 24 19 14 0 28
-5 31 -11z m-1515 -179 c0 -5 -9 -10 -21 -10 -11 0 -17 5 -14 10 3 6 13 10 21
10 8 0 14 -4 14 -10z m35 -60 c3 -5 2 -10 -4 -10 -5 0 -13 5 -16 10 -3 6 -2
10 4 10 5 0 13 -4 16 -10z m785 -129 c0 -14 -10 -21 -35 -25 -45 -9 -58 -1
-45 25 15 27 80 27 80 0z m680 9 c0 -13 -28 -25 -38 -16 -3 4 0 11 8 16 20 13
30 12 30 0z m-837 -87 c7 -11 -11 -53 -22 -53 -5 0 -12 7 -15 16 -10 25 24 58
37 37z m-633 -12 c0 -11 -39 -21 -45 -11 -2 4 -2 10 2 14 10 9 43 7 43 -3z
m690 -71 c0 -5 -7 -10 -15 -10 -8 0 -15 5 -15 10 0 6 7 10 15 10 8 0 15 -4 15
-10z m40 -10 c0 -5 -5 -10 -11 -10 -5 0 -7 5 -4 10 3 6 8 10 11 10 2 0 4 -4 4
-10z m130 -144 c0 -16 -18 -31 -27 -22 -8 8 5 36 17 36 5 0 10 -6 10 -14z
m-332 -167 c-2 -6 -8 -10 -13 -10 -5 0 -11 4 -13 10 -2 6 4 11 13 11 9 0 15
-5 13 -11z m823 -49 c11 -6 19 -21 19 -35 0 -29 -18 -34 -26 -7 -3 9 -10 25
-15 35 -11 20 -6 21 22 7z m-1319 -32 c-5 -7 -12 -22 -14 -33 -5 -18 -6 -18
-13 -2 -10 23 1 47 21 47 12 0 14 -3 6 -12z m33 -132 c23 -34 16 -80 -12 -84
-29 -4 -46 28 -37 73 7 41 27 45 49 11z m945 -77 c0 -5 -4 -9 -10 -9 -5 0 -10
7 -10 16 0 8 5 12 10 9 6 -3 10 -10 10 -16z m348 -31 c-3 -7 -13 -15 -24 -17
-10 -2 -24 -10 -30 -19 -9 -12 -12 -13 -19 -2 -5 8 -4 15 2 17 6 2 19 10 29
18 24 18 47 19 42 3z m-1276 -20 c-6 -6 -15 -8 -19 -4 -4 4 -1 11 7 16 19 12
27 3 12 -12z m948 -37 c0 -6 -10 -17 -22 -25 -41 -29 -65 -15 -32 18 17 17 54
22 54 7z m250 -31 c0 -5 -4 -10 -10 -10 -5 0 -10 5 -10 10 0 6 5 10 10 10 6 0
10 -4 10 -10z m-50 -31 c0 -17 -3 -18 -21 -9 -16 9 -18 14 -9 26 15 17 30 9
30 -17z m-160 -25 c7 -19 7 -31 -1 -40 -20 -24 -29 -15 -29 26 0 46 16 53 30
14z m-900 -3 c0 -23 -16 -36 -25 -21 -9 14 1 40 15 40 5 0 10 -9 10 -19z m105
-32 c-10 -15 -25 -10 -19 6 4 8 10 12 15 9 5 -3 7 -10 4 -15z m1048 14 c-7 -2
-19 -2 -25 0 -7 3 -2 5 12 5 14 0 19 -2 13 -5z m-83 -47 c-5 -5 -5 -17 2 -29
11 -22 -3 -37 -34 -37 -21 0 -24 36 -7 74 10 21 14 23 30 13 11 -7 15 -15 9
-21z m-860 -28 c0 -22 -17 -41 -29 -34 -15 10 -14 33 2 39 21 9 27 8 27 -5z
m-262 -45 c5 -18 -23 -16 -39 3 -11 14 -10 15 11 12 13 -1 25 -9 28 -15z
m1212 -8 c0 -8 -4 -15 -10 -15 -5 0 -10 7 -10 15 0 8 5 15 10 15 6 0 10 -7 10
-15z m-50 -35 c0 -16 -1 -30 -3 -30 -2 0 -13 14 -25 30 l-23 30 26 0 c21 0 25
-5 25 -30z m-1000 -50 c0 -5 -4 -10 -9 -10 -6 0 -13 5 -16 10 -3 6 1 10 9 10
9 0 16 -4 16 -10z m896 -27 c-11 -11 -19 6 -11 24 8 17 8 17 12 0 3 -10 2 -21
-1 -24z m-846 -33 c0 -5 -4 -10 -10 -10 -5 0 -10 5 -10 10 0 6 5 10 10 10 6 0
10 -4 10 -10z m-180 -28 c0 -14 -11 -21 -26 -15 -21 8 -17 23 6 23 11 0 20 -4
20 -8z m90 -33 c0 -5 -11 -9 -25 -9 -24 0 -32 10 -19 22 8 8 44 -3 44 -13z
m877 -4 c8 -21 2 -24 -25 -14 -13 5 -20 13 -17 19 9 15 35 12 42 -5z m-829
-17 c-6 -18 -28 -21 -28 -4 0 9 7 16 16 16 9 0 14 -5 12 -12z m965 -39 c-17
-17 -37 -1 -22 17 8 10 15 12 23 4 7 -7 7 -13 -1 -21z m37 -29 c0 -5 -4 -10
-10 -10 -5 0 -10 5 -10 10 0 6 5 10 10 10 6 0 10 -4 10 -10z m-10 -34 c0 -11
-19 -15 -25 -6 -3 5 1 10 9 10 9 0 16 -2 16 -4z m-140 -51 c0 -8 -7 -15 -15
-15 -16 0 -20 12 -8 23 11 12 23 8 23 -8z m70 -33 c0 -5 -8 -17 -19 -26 -17
-15 -19 -15 -25 -1 -10 28 -7 35 19 35 14 0 25 -4 25 -8z m-1042 -67 c-13 -13
-27 -21 -32 -18 -5 3 -2 11 7 18 10 7 17 20 17 30 0 14 3 15 15 5 13 -11 12
-15 -7 -35z m1032 -115 c0 -5 -4 -10 -10 -10 -5 0 -10 5 -10 10 0 6 5 10 10
10 6 0 10 -4 10 -10z"/>
<path d="M2518 7788 c-22 -34 -41 -97 -34 -114 5 -13 13 -10 44 17 45 39 65
74 57 99 -9 27 -49 26 -67 -2z"/>
<path d="M9560 7795 c0 -10 7 -15 18 -13 21 4 19 22 -2 26 -10 2 -16 -3 -16
-13z"/>
<path d="M9642 7768 c-26 -26 0 -77 33 -64 26 10 13 76 -15 76 -3 0 -11 -5
-18 -12z"/>
<path d="M2428 7735 c-13 -28 -6 -40 17 -32 17 7 21 57 5 57 -6 0 -16 -11 -22
-25z"/>
<path d="M2613 7743 c-15 -6 -17 -49 -3 -58 6 -3 19 -3 31 0 15 5 19 14 17 33
-3 26 -20 36 -45 25z"/>
<path d="M2873 7743 c-18 -7 -16 -38 2 -53 23 -19 47 -4 43 27 -3 27 -20 37
-45 26z"/>
<path d="M9981 7736 c-15 -18 2 -56 25 -56 11 0 14 9 12 32 -3 36 -19 46 -37
24z"/>
<path d="M10077 7734 c-9 -10 4 -34 19 -34 8 0 14 4 14 9 0 12 -26 32 -33 25z"/>
<path d="M10143 7708 c-14 -17 2 -58 22 -58 20 0 31 28 18 48 -13 22 -28 25
-40 10z"/>
<path d="M10298 7709 c-24 -14 -23 -61 2 -90 l20 -24 20 24 c24 28 26 64 4 85
-18 19 -23 19 -46 5z"/>
<path d="M9917 7703 c-24 -23 15 -115 41 -99 15 9 16 61 2 87 -11 19 -31 25
-43 12z"/>
<path d="M2416 7658 c-18 -25 -21 -54 -6 -63 15 -9 50 32 50 60 0 31 -23 33
-44 3z"/>
<path d="M2931 7670 c-7 -4 -11 -18 -9 -31 5 -35 42 -33 46 2 3 28 -16 43 -37
29z"/>
<path d="M9830 7665 c-18 -22 -3 -57 23 -53 29 4 35 43 9 57 -15 8 -23 7 -32
-4z"/>
<path d="M10388 7663 c-13 -14 -15 -38 -13 -118 3 -127 20 -187 56 -209 15 -9
39 -36 53 -60 14 -24 35 -46 47 -49 21 -6 21 -7 5 -32 -22 -33 -27 -87 -14
-153 10 -49 9 -55 -11 -73 -23 -22 -21 -51 8 -103 40 -72 62 -21 55 128 -5
103 -4 105 20 121 35 23 42 62 17 95 -13 19 -16 31 -9 38 11 11 3 78 -13 102
-8 13 -13 10 -33 -14 -13 -16 -29 -25 -35 -22 -18 11 -61 103 -61 129 0 13 -9
32 -20 42 -31 28 -25 53 13 63 40 10 44 34 14 87 -25 45 -55 55 -79 28z"/>
<path d="M2682 7648 c-7 -7 -12 -20 -12 -29 0 -27 -26 -42 -61 -34 -20 5 -42
2 -63 -8 -17 -8 -43 -20 -57 -25 -21 -8 -27 -19 -32 -57 -4 -26 -16 -58 -26
-72 -19 -24 -21 -46 -12 -176 1 -5 11 -7 24 -5 21 3 22 8 22 82 0 66 3 80 19
90 42 25 75 58 78 78 5 36 34 46 61 20 26 -25 47 -14 47 24 0 14 12 31 30 44
22 15 30 30 30 51 0 31 -25 40 -48 17z"/>
<path d="M10235 7590 c-8 -14 13 -50 30 -50 19 0 27 16 20 40 -7 21 -39 27
-50 10z"/>
<path d="M10145 7580 c-9 -15 30 -92 65 -125 24 -23 32 -26 45 -15 22 18 19
27 -20 63 -18 18 -39 44 -44 60 -11 27 -34 36 -46 17z"/>
<path d="M3305 7549 c-5 -14 -1 -27 10 -38 15 -15 17 -15 31 4 19 26 14 49
-13 53 -15 2 -23 -4 -28 -19z"/>
<path d="M2777 7553 c-11 -10 -8 -41 3 -48 15 -9 40 14 40 36 0 19 -29 27 -43
12z"/>
<path d="M10495 7527 c-38 -59 -25 -113 27 -105 18 2 24 10 26 39 3 39 -12 89
-28 89 -5 0 -16 -10 -25 -23z"/>
<path d="M2362 7497 c-14 -16 -35 -100 -30 -122 3 -15 6 -15 30 4 34 27 53 82
38 111 -12 23 -23 25 -38 7z"/>
<path d="M10043 7484 c-8 -20 9 -49 28 -49 18 0 24 32 9 50 -16 20 -29 19 -37
-1z"/>
<path d="M9830 7480 c-8 -6 -27 -10 -41 -10 -31 0 -44 -23 -29 -51 12 -22 21
-23 73 -8 29 8 37 15 37 33 0 30 -21 48 -40 36z"/>
<path d="M2745 7450 c-8 -13 14 -42 26 -34 5 3 9 14 9 25 0 20 -24 26 -35 9z"/>
<path d="M2824 7435 c-8 -21 3 -45 20 -45 16 0 31 34 21 50 -9 15 -35 12 -41
-5z"/>
<path d="M9965 7439 c-10 -15 3 -75 18 -87 7 -6 25 -16 40 -21 42 -16 45 10 6
69 -32 49 -51 61 -64 39z"/>
<path d="M3263 7414 c-7 -18 11 -39 26 -30 17 11 13 46 -4 46 -9 0 -18 -7 -22
-16z"/>
<path d="M9596 7414 c-4 -9 -1 -23 5 -30 15 -18 39 -1 39 27 0 24 -35 26 -44
3z"/>
<path d="M2643 7392 c-6 -4 -15 -20 -18 -35 -9 -36 -22 -43 -44 -23 -22 20
-35 20 -50 2 -15 -18 -3 -46 20 -46 10 0 26 -11 35 -25 22 -33 30 -32 44 10 9
26 17 35 34 35 43 0 61 44 30 74 -17 17 -32 20 -51 8z"/>
<path d="M10320 7366 c-8 -11 -17 -13 -30 -6 -25 13 -54 -10 -46 -37 10 -31
37 -38 56 -14 15 19 16 18 55 -26 35 -41 39 -52 41 -102 1 -66 10 -96 37 -133
25 -34 12 -57 -21 -39 -15 8 -23 8 -27 0 -4 -5 -18 -14 -32 -20 -20 -7 -24
-15 -21 -41 4 -42 33 -50 49 -14 10 21 19 26 49 26 20 0 44 6 53 13 17 11 16
18 -13 104 -16 51 -30 112 -30 136 0 34 -6 49 -26 68 -14 13 -33 39 -42 58
-20 40 -34 48 -52 27z"/>
<path d="M2768 7339 c-25 -14 -24 -59 1 -59 23 0 44 24 39 46 -4 22 -18 26
-40 13z"/>
<path d="M10094 7296 c-10 -26 1 -51 21 -51 23 0 32 30 15 50 -16 19 -29 19
-36 1z"/>
<path d="M9614 7275 c-8 -21 2 -45 20 -45 17 0 28 24 20 45 -4 8 -13 15 -20
15 -8 0 -17 -7 -20 -15z"/>
<path d="M2342 7268 c-17 -17 -15 -83 3 -98 20 -17 41 1 49 41 10 52 -22 87
-52 57z"/>
<path d="M3215 7260 c-10 -16 14 -50 36 -50 25 0 35 25 19 45 -14 17 -46 20
-55 5z"/>
<path d="M10250 7212 c-13 -9 -40 -17 -60 -17 -29 0 -36 -4 -38 -23 -5 -37 14
-51 64 -48 24 1 50 8 56 14 19 19 36 14 54 -13 17 -26 38 -32 49 -15 11 17
-15 79 -42 100 -31 24 -50 25 -83 2z"/>
<path d="M2506 7198 c-17 -24 -19 -17 30 -92 8 -14 14 -30 13 -38 -3 -26 1
-38 15 -38 7 0 16 -9 19 -21 9 -33 41 -20 45 19 3 27 0 32 -17 32 -22 0 -26
25 -21 103 3 55 -54 79 -84 35z"/>
<path d="M2967 7213 c-4 -3 -7 -17 -7 -30 0 -16 6 -23 20 -23 16 0 20 7 20 30
0 28 -17 40 -33 23z"/>
<path d="M2271 7130 c-16 -73 -14 -111 4 -104 23 9 49 88 38 120 -15 45 -30
39 -42 -16z"/>
<path d="M9907 7173 c-13 -12 -7 -40 13 -58 18 -16 20 -16 26 -1 14 37 -16 83
-39 59z"/>
<path d="M2421 7114 c-26 -21 -31 -33 -31 -68 0 -49 29 -87 48 -64 25 31 41
141 23 152 -5 4 -23 -6 -40 -20z"/>
<path d="M9884 7076 c-9 -24 4 -48 23 -44 12 2 18 12 18 28 0 29 -32 41 -41
16z"/>
<path d="M2774 7072 c-16 -11 -24 -41 -13 -48 14 -8 39 15 39 37 0 20 -8 23
-26 11z"/>
<path d="M3015 7037 c-20 -31 -12 -70 13 -65 11 2 18 15 20 37 5 46 -12 60
-33 28z"/>
<path d="M2664 7015 c-8 -32 1 -55 21 -55 18 0 37 43 29 65 -10 25 -43 18 -50
-10z"/>
<path d="M10640 7028 c0 -10 -12 -40 -27 -67 -24 -42 -26 -52 -15 -75 28 -61
89 -46 71 17 -5 18 -9 50 -9 72 0 22 -5 47 -10 55 -8 13 -10 12 -10 -2z"/>
<path d="M10033 6984 c-7 -19 13 -34 45 -34 12 0 25 -7 28 -15 10 -25 53 -18
66 10 17 37 -2 53 -42 38 -23 -9 -32 -8 -41 3 -16 19 -48 18 -56 -2z"/>
<path d="M10266 6987 c-25 -18 -19 -80 8 -86 38 -7 66 79 30 93 -20 8 -17 8
-38 -7z"/>
<path d="M2310 6953 c-22 -8 -40 -34 -40 -59 0 -18 14 -30 60 -53 l60 -31 30
28 c20 17 32 38 33 57 2 27 -1 30 -27 28 -16 -1 -40 6 -54 17 -25 20 -36 23
-62 13z"/>
<path d="M2797 6929 c-34 -48 -11 -103 25 -59 22 27 23 40 5 65 -13 17 -15 17
-30 -6z"/>
<path d="M10450 6889 c-22 -39 18 -125 41 -88 19 30 4 109 -21 109 -5 0 -14
-9 -20 -21z"/>
<path d="M9844 6879 c-10 -17 23 -46 37 -32 7 7 9 19 6 27 -7 18 -33 21 -43 5z"/>
<path d="M9762 6868 c-18 -18 -15 -48 6 -48 10 0 23 5 30 12 7 7 12 20 12 30
0 21 -30 24 -48 6z"/>
<path d="M2617 6844 c-13 -13 -7 -55 8 -60 21 -9 47 15 43 40 -3 21 -37 34
-51 20z"/>
<path d="M9555 6840 c-8 -14 13 -40 32 -40 20 0 12 44 -9 48 -9 2 -19 -2 -23
-8z"/>
<path d="M2256 6822 c-2 -4 -7 -25 -11 -47 -4 -22 -14 -53 -22 -68 -20 -40
-14 -92 12 -92 15 0 21 9 26 41 4 22 17 59 29 83 19 35 21 47 12 67 -11 23
-36 32 -46 16z"/>
<path d="M2482 6808 c-18 -18 -15 -45 9 -69 16 -16 23 -18 35 -8 15 12 18 46
8 73 -7 19 -35 21 -52 4z"/>
<path d="M10579 6794 c-18 -22 -16 -81 3 -100 13 -13 20 -14 38 -4 17 9 25 9
39 -4 27 -25 32 -20 29 26 -2 32 -8 45 -25 54 -13 6 -31 18 -41 27 -23 21 -26
21 -43 1z"/>
<path d="M10307 6793 c-13 -13 -7 -61 11 -83 35 -44 79 17 47 66 -15 23 -44
32 -58 17z"/>
<path d="M2670 6750 c0 -21 4 -30 13 -27 6 2 12 14 12 27 0 13 -6 25 -12 28
-9 2 -13 -7 -13 -28z"/>
<path d="M10490 6745 c-11 -13 -8 -27 15 -87 15 -39 36 -78 46 -87 23 -19 24
-34 2 -52 -13 -11 -17 -11 -20 -1 -8 21 -43 13 -54 -12 -24 -53 17 -110 50
-69 16 20 17 20 33 -1 15 -21 16 -21 37 -2 20 18 21 18 31 -10 11 -28 12 -28
26 -10 8 11 14 32 14 47 0 14 7 32 15 39 21 17 20 51 -1 43 -21 -8 -64 17 -64
38 0 9 -10 23 -22 32 -23 15 -48 58 -64 111 -11 35 -26 42 -44 21z"/>
<path d="M9762 6729 c2 -6 8 -10 13 -10 5 0 11 4 13 10 2 6 -4 11 -13 11 -9 0
-15 -5 -13 -11z"/>
<path d="M10157 6733 c-22 -21 31 -93 68 -93 37 0 48 55 17 83 -18 17 -73 23
-85 10z"/>
<path d="M2312 6718 c-27 -27 -4 -86 53 -137 29 -25 40 -30 51 -20 22 18 17
44 -20 88 -19 23 -38 50 -41 61 -7 23 -25 26 -43 8z"/>
<path d="M2477 6626 c-3 -7 1 -23 10 -35 21 -31 67 -25 71 8 2 13 -2 28 -10
32 -21 14 -65 10 -71 -5z"/>
<path d="M2626 6619 c-14 -11 -26 -26 -26 -33 0 -17 33 -46 53 -46 22 0 47 38
47 72 0 23 -4 28 -24 28 -13 0 -35 -9 -50 -21z"/>
<path d="M2840 6626 c-8 -10 -5 -28 10 -69 39 -104 73 -98 45 8 -18 65 -35 84
-55 61z"/>
<path d="M10422 6628 c-16 -16 -15 -39 2 -60 21 -28 44 -22 51 12 10 47 -24
77 -53 48z"/>
<path d="M2980 6582 c0 -16 6 -34 13 -40 20 -17 39 2 35 34 -2 21 -9 30 -25
32 -19 3 -23 -1 -23 -26z"/>
<path d="M9934 6596 c-9 -24 4 -48 23 -44 12 2 18 12 18 28 0 29 -32 41 -41
16z"/>
<path d="M10335 6545 c-28 -27 -33 -71 -11 -100 14 -19 15 -19 35 -1 30 27 48
91 31 111 -17 21 -27 19 -55 -10z"/>
<path d="M10060 6535 c0 -8 5 -15 10 -15 6 0 10 7 10 15 0 8 -4 15 -10 15 -5
0 -10 -7 -10 -15z"/>
<path d="M2421 6475 c-10 -36 -30 -78 -45 -95 -29 -35 -25 -60 9 -60 30 0 65
44 65 80 0 15 9 47 19 70 21 48 18 70 -10 70 -14 0 -23 -15 -38 -65z"/>
<path d="M10105 6519 c-10 -30 18 -58 40 -39 22 18 15 54 -12 58 -15 2 -23 -3
-28 -19z"/>
<path d="M2210 6504 c-14 -35 -13 -57 3 -78 11 -15 17 -17 35 -7 17 9 22 21
22 49 0 61 -42 86 -60 36z"/>
<path d="M2316 6514 c-16 -43 6 -116 31 -101 14 9 26 73 18 97 -8 24 -40 26
-49 4z"/>
<path d="M2526 6492 c-3 -4 -2 -43 1 -85 5 -64 9 -77 23 -77 10 0 20 10 24 23
8 29 8 111 0 131 -6 17 -39 22 -48 8z"/>
<path d="M9964 6475 c-4 -18 -1 -32 10 -43 21 -21 39 -4 34 34 -4 39 -35 45
-44 9z"/>
<path d="M2814 6426 c-9 -23 0 -51 17 -54 19 -4 32 23 24 49 -7 22 -33 25 -41
5z"/>
<path d="M9763 6414 c-7 -18 6 -45 25 -52 15 -5 33 33 26 52 -8 21 -43 21 -51
0z"/>
<path d="M10269 6418 c-1 -7 0 -17 1 -23 1 -5 6 -34 12 -65 11 -63 24 -82 39
-60 11 17 4 113 -12 141 -11 21 -38 26 -40 7z"/>
<path d="M10436 6375 c-3 -9 -6 -36 -6 -60 0 -39 3 -44 35 -60 50 -23 71 -17
67 20 -8 73 -78 146 -96 100z"/>
<path d="M10584 6345 c-7 -19 -14 -45 -14 -58 0 -14 -7 -30 -15 -37 -8 -7 -15
-26 -15 -42 0 -18 -11 -43 -25 -60 -37 -44 -32 -68 20 -85 42 -14 47 -69 11
-122 -14 -20 -26 -45 -26 -56 0 -10 -20 -40 -45 -66 -47 -50 -55 -81 -32 -113
11 -16 14 -15 40 12 15 16 36 51 46 77 10 26 39 73 64 104 30 38 47 68 49 91
2 24 10 38 25 45 22 9 33 32 33 73 0 23 -14 30 -25 12 -12 -19 -54 -10 -71 15
-33 50 6 123 79 148 9 4 17 11 17 16 0 15 -71 81 -87 81 -8 0 -21 -16 -29 -35z"/>
<path d="M2204 6346 c-3 -8 -4 -25 -2 -38 4 -32 42 -32 46 0 6 38 -32 70 -44
38z"/>
<path d="M2276 6315 c-3 -9 1 -35 10 -58 8 -23 20 -57 25 -74 6 -18 16 -33 24
-33 12 0 15 15 15 64 0 84 -12 116 -44 116 -13 0 -27 -7 -30 -15z"/>
<path d="M10054 6296 c-10 -26 1 -51 21 -51 23 0 32 30 15 50 -16 19 -29 19
-36 1z"/>
<path d="M2610 6258 c0 -47 33 -112 53 -105 36 11 7 147 -32 147 -18 0 -21 -6
-21 -42z"/>
<path d="M10136 6291 c-10 -16 5 -42 23 -39 21 4 21 42 -1 46 -9 2 -19 -1 -22
-7z"/>
<path d="M10352 6268 c-22 -22 -14 -75 15 -98 31 -24 47 -22 51 7 4 24 -28 95
-43 100 -6 2 -16 -2 -23 -9z"/>
<path d="M2482 6237 c-5 -6 -13 -22 -16 -34 -4 -11 -22 -33 -41 -48 -29 -22
-35 -32 -35 -65 0 -21 5 -42 11 -46 6 -3 18 -22 25 -41 20 -47 40 -37 36 18
-4 58 17 149 37 157 34 12 41 46 12 61 -13 8 -22 7 -29 -2z"/>
<path d="M2970 6225 c-10 -12 -9 -20 4 -41 10 -14 23 -23 29 -21 17 5 21 45 7
63 -16 18 -24 18 -40 -1z"/>
<path d="M10220 6175 c-14 -17 -4 -55 15 -55 16 0 31 43 20 59 -9 15 -20 14
-35 -4z"/>
<path d="M2240 6163 c0 -10 -7 -39 -17 -65 -20 -56 -9 -77 34 -71 29 5 30 5
59 -108 6 -22 -33 -69 -57 -69 -16 0 -19 -7 -19 -45 0 -56 29 -92 60 -75 15 8
20 21 20 55 0 52 14 65 41 36 40 -42 54 9 19 67 -13 21 -20 50 -20 82 0 46
-17 80 -41 80 -5 0 -9 17 -9 39 0 24 -8 48 -21 65 -23 30 -49 34 -49 9z"/>
<path d="M2927 6133 c-10 -9 -8 -53 2 -53 16 0 31 27 25 44 -6 17 -16 20 -27
9z"/>
<path d="M3152 6098 c-17 -17 -15 -47 3 -54 21 -9 47 15 43 40 -4 24 -28 32
-46 14z"/>
<path d="M9880 6086 c-14 -18 -6 -50 13 -44 15 6 22 37 10 49 -6 6 -15 4 -23
-5z"/>
<path d="M10207 6067 c-8 -20 9 -41 27 -34 23 9 21 47 -3 47 -10 0 -21 -6 -24
-13z"/>
<path d="M10306 6055 c-3 -9 -6 -30 -6 -45 0 -16 -5 -41 -12 -55 -8 -18 -8
-29 -1 -36 27 -27 88 95 65 131 -13 21 -38 24 -46 5z"/>
<path d="M10412 6058 c-15 -15 3 -48 28 -48 11 0 24 -9 30 -20 15 -28 48 -26
56 4 7 30 -1 46 -25 46 -9 0 -26 7 -37 15 -23 18 -36 19 -52 3z"/>
<path d="M2716 6041 c-9 -14 4 -41 20 -41 8 0 14 10 14 25 0 25 -23 35 -34 16z"/>
<path d="M2572 6028 c-17 -17 -15 -54 4 -73 25 -25 49 -15 52 23 5 50 -27 79
-56 50z"/>
<path d="M10667 6013 c-4 -3 -7 -24 -7 -45 0 -21 -7 -50 -16 -64 -14 -20 -15
-30 -5 -50 6 -14 11 -35 11 -46 0 -15 3 -19 10 -12 10 10 30 147 30 202 0 22
-10 29 -23 15z"/>
<path d="M10140 5975 c-14 -17 -10 -47 7 -52 15 -5 47 42 38 57 -9 14 -31 12
-45 -5z"/>
<path d="M2740 5952 c0 -37 36 -74 50 -52 12 19 12 23 0 54 -14 38 -50 36 -50
-2z"/>
<path d="M2390 5925 c0 -16 6 -25 15 -25 9 0 15 9 15 25 0 16 -6 25 -15 25 -9
0 -15 -9 -15 -25z"/>
<path d="M2942 5938 c-18 -18 -15 -67 4 -75 22 -8 46 24 42 57 -3 28 -27 37
-46 18z"/>
<path d="M10352 5938 c-17 -17 -15 -32 7 -52 23 -21 41 -13 41 18 0 21 -16 46
-30 46 -3 0 -11 -5 -18 -12z"/>
<path d="M2512 5878 c-27 -27 2 -68 35 -50 13 8 20 6 30 -6 11 -14 14 -15 22
-3 13 19 3 41 -19 41 -10 0 -20 7 -24 15 -7 18 -28 19 -44 3z"/>
<path d="M9964 5876 c-7 -19 3 -36 22 -36 10 0 14 8 12 22 -4 26 -26 36 -34
14z"/>
<path d="M2431 5867 c-16 -20 -19 -159 -4 -164 7 -3 15 8 18 24 3 15 15 45 26
66 19 36 19 40 4 63 -18 27 -28 30 -44 11z"/>
<path d="M9511 5866 c-8 -10 -9 -16 -1 -21 13 -8 30 3 30 21 0 18 -14 18 -29
0z"/>
<path d="M2661 5836 c-20 -23 12 -66 48 -66 20 0 12 59 -8 70 -25 13 -26 13
-40 -4z"/>
<path d="M10298 5820 c-33 -20 -36 -140 -3 -140 18 0 76 117 68 136 -6 16 -40
18 -65 4z"/>
<path d="M2469 5723 c-37 -44 12 -223 61 -223 25 0 25 12 0 78 -11 29 -20 76
-20 107 0 58 -14 71 -41 38z"/>
<path d="M9820 5715 c-15 -19 3 -45 31 -45 10 0 21 -4 24 -10 3 -5 15 -10 26
-10 29 0 25 38 -6 46 -14 3 -25 12 -25 20 0 19 -34 18 -50 -1z"/>
<path d="M10110 5666 c-32 -68 -36 -111 -10 -111 9 0 16 11 18 30 2 17 16 47
33 65 32 37 35 73 7 78 -13 2 -26 -14 -48 -62z"/>
<path d="M10615 5699 l-26 -32 -16 22 c-34 49 -91 -6 -65 -64 16 -35 68 -36
84 0 6 14 19 25 29 25 10 0 20 8 23 18 2 9 7 27 11 40 9 31 -9 27 -40 -9z"/>
<path d="M2590 5695 c-10 -26 2 -75 18 -75 16 0 32 25 32 50 0 25 -16 50 -32
50 -5 0 -13 -11 -18 -25z"/>
<path d="M2326 5694 c-3 -9 -6 -26 -6 -38 0 -13 -9 -31 -20 -41 -21 -19 -27
-69 -11 -93 15 -25 55 -10 62 23 4 17 12 52 18 78 8 34 8 54 1 67 -13 24 -36
26 -44 4z"/>
<path d="M9954 5656 c-9 -24 3 -46 26 -46 17 0 21 5 18 27 -3 31 -34 44 -44
19z"/>
<path d="M2820 5636 c0 -18 16 -29 30 -21 13 8 1 35 -16 35 -8 0 -14 -6 -14
-14z"/>
<path d="M10346 5634 c-24 -24 -17 -58 13 -62 37 -6 101 -50 111 -78 6 -14 10
-40 10 -58 0 -40 21 -71 43 -63 14 5 16 15 11 51 -8 57 7 80 48 72 31 -6 42 7
53 66 9 46 -8 57 -46 29 -22 -16 -34 -19 -47 -12 -11 6 -29 7 -41 4 -17 -4
-29 2 -49 25 -33 38 -82 50 -106 26z"/>
<path d="M2947 5599 c-7 -28 10 -72 26 -67 17 6 21 56 6 74 -16 20 -26 18 -32
-7z"/>
<path d="M2387 5593 c-12 -11 -7 -82 7 -118 25 -60 96 -86 96 -35 0 12 -12 36
-26 55 -14 18 -30 50 -35 69 -9 33 -26 45 -42 29z"/>
<path d="M2597 5573 c-4 -3 -7 -24 -7 -45 0 -21 -5 -47 -12 -58 -10 -15 -9
-24 2 -45 18 -34 46 -29 42 9 -2 19 5 35 22 51 32 30 32 40 1 70 -25 26 -37
30 -48 18z"/>
<path d="M2763 5573 c-33 -13 9 -113 60 -145 33 -21 37 19 7 63 -12 15 -26 42
-31 59 -11 30 -14 32 -36 23z"/>
<path d="M3032 5564 c-13 -24 -3 -54 19 -54 22 0 41 32 33 54 -8 21 -41 20
-52 0z"/>
<path d="M10250 5550 c-23 -23 -17 -50 11 -50 21 0 40 36 32 58 -7 17 -20 15
-43 -8z"/>
<path d="M3027 5484 c-10 -10 -9 -52 1 -58 15 -9 34 11 30 34 -3 24 -19 36
-31 24z"/>
<path d="M2313 5445 c-3 -10 -2 -38 3 -64 7 -36 14 -47 31 -49 32 -5 43 -47
26 -97 -13 -37 -13 -45 10 -109 13 -39 29 -72 37 -74 9 -3 11 2 7 19 -20 70
-20 99 -1 105 11 4 26 13 35 21 13 11 23 10 61 -7 43 -19 78 -19 78 0 0 25
-22 59 -42 66 -38 12 -77 45 -87 76 -6 17 -17 28 -28 28 -32 0 -62 28 -65 63
-2 27 -8 33 -31 35 -18 2 -29 -2 -34 -13z m151 -182 c-9 -36 -8 -35 -28 -20
-21 16 -11 47 15 47 16 0 18 -5 13 -27z"/>
<path d="M10320 5431 c-18 -44 -10 -95 16 -99 19 -3 24 4 34 48 7 27 9 57 6
65 -9 26 -43 17 -56 -14z"/>
<path d="M10106 5435 c-6 -17 2 -45 14 -45 15 0 32 30 26 45 -7 19 -32 19 -40
0z"/>
<path d="M10245 5430 c-22 -25 -10 -55 21 -55 15 0 19 7 19 34 0 41 -15 49
-40 21z"/>
<path d="M9756 5414 c-24 -23 -18 -79 9 -79 27 0 45 60 23 81 -14 14 -17 14
-32 -2z"/>
<path d="M10154 5380 c-28 -11 -54 -48 -54 -77 0 -37 45 -31 70 10 32 52 25
82 -16 67z"/>
<path d="M2640 5315 c-20 -24 -4 -65 25 -65 28 0 52 37 42 64 -8 20 -51 21
-67 1z"/>
<path d="M10366 5314 c-10 -27 -7 -71 7 -83 10 -7 32 -8 76 0 34 5 69 8 79 7
19 -3 43 38 40 67 -4 29 -34 30 -59 1 -28 -33 -54 -33 -75 -1 -18 28 -59 34
-68 9z"/>
<path d="M3023 5299 c-8 -8 -9 -18 -2 -30 12 -24 41 -13 37 14 -4 25 -19 32
-35 16z"/>
<path d="M9569 5259 c-11 -11 -19 -28 -17 -37 5 -24 39 -28 55 -6 31 43 -1 80
-38 43z"/>
<path d="M9946 5249 c-19 -28 -4 -68 20 -48 16 13 19 55 5 64 -5 3 -16 -4 -25
-16z"/>
<path d="M3210 5250 c-20 -13 -2 -44 29 -48 24 -4 30 25 9 46 -14 14 -18 15
-38 2z"/>
<path d="M2862 5228 c-7 -7 -12 -29 -12 -51 0 -31 3 -38 17 -35 10 2 20 17 25
38 11 54 -2 76 -30 48z"/>
<path d="M2760 5203 c0 -29 33 -93 49 -93 17 0 33 29 26 49 -9 29 -45 71 -61
71 -9 0 -14 -10 -14 -27z"/>
<path d="M10237 5212 c-10 -10 -17 -29 -17 -41 0 -14 -7 -25 -20 -28 -21 -6
-47 -70 -34 -83 5 -5 20 -10 34 -12 33 -4 42 -53 11 -61 -12 -3 -24 -13 -27
-24 -4 -10 -22 -33 -42 -51 -29 -28 -33 -38 -28 -64 8 -40 23 -58 48 -58 17 0
19 5 13 38 -5 32 -2 43 24 76 17 21 31 43 31 47 0 5 6 9 14 9 21 0 46 39 46
72 0 18 -9 33 -30 48 -38 27 -38 37 1 45 35 8 55 42 45 79 -8 31 -44 35 -69 8z"/>
<path d="M2600 5159 c0 -32 19 -59 40 -59 24 0 27 35 6 63 -18 24 -46 22 -46
-4z"/>
<path d="M10405 5142 c-38 -21 -51 -33 -53 -54 -2 -14 -10 -32 -18 -38 -16
-14 -19 -46 -4 -55 5 -3 18 -1 29 5 26 13 32 2 40 -69 8 -70 28 -75 53 -11 22
57 22 84 2 126 -16 33 -15 34 10 65 48 57 19 73 -59 31z"/>
<path d="M10076 5137 c-29 -29 -30 -35 -16 -57 13 -20 42 -2 54 34 15 42 -6
55 -38 23z"/>
<path d="M2489 5078 c-1 -29 -3 -91 -4 -138 -2 -83 12 -140 35 -140 17 0 19
17 11 71 -9 53 6 119 26 119 19 -1 54 -38 61 -65 6 -23 15 -31 35 -33 20 -2
27 1 27 13 0 25 -19 55 -35 55 -8 0 -15 8 -15 18 0 20 -65 132 -83 144 -7 4
-22 8 -34 8 -21 0 -23 -5 -24 -52z"/>
<path d="M9356 5121 c-3 -4 1 -17 9 -27 10 -15 16 -16 26 -7 6 6 9 19 6 27 -7
17 -32 22 -41 7z"/>
<path d="M2707 5083 c-26 -25 11 -83 51 -83 18 0 22 6 22 29 0 44 -48 80 -73
54z"/>
<path d="M9665 5077 c-40 -30 11 -92 60 -73 20 7 19 50 -1 70 -19 20 -35 20
-59 3z"/>
<path d="M9881 5072 c-8 -15 -7 -23 4 -32 21 -18 47 -4 43 22 -4 29 -34 35
-47 10z"/>
<path d="M9945 5060 c-7 -12 2 -30 16 -30 5 0 9 9 9 20 0 21 -15 27 -25 10z"/>
<path d="M10098 4999 c-10 -6 -18 -20 -18 -32 0 -12 -9 -28 -21 -35 -14 -9
-19 -21 -17 -39 5 -46 27 -38 54 21 29 64 30 101 2 85z"/>
<path d="M2944 4988 c-4 -6 3 -19 16 -30 27 -22 34 -22 50 -3 10 12 10 18 0
30 -15 18 -56 20 -66 3z"/>
<path d="M9982 4978 c-7 -7 -12 -22 -12 -34 0 -15 -10 -27 -27 -36 -33 -15
-53 -62 -35 -80 13 -13 47 12 57 43 4 11 13 19 20 19 20 0 37 36 33 67 -3 30
-18 39 -36 21z"/>
<path d="M2730 4964 c0 -24 19 -54 35 -54 18 0 20 41 3 58 -17 17 -38 15 -38
-4z"/>
<path d="M3026 4945 c-15 -40 40 -99 70 -74 15 12 18 46 8 73 -8 21 -70 22
-78 1z"/>
<path d="M10296 4941 c-4 -6 -4 -21 -1 -34 5 -18 1 -29 -13 -38 -11 -8 -23
-29 -26 -47 -4 -18 -19 -40 -33 -50 -26 -17 -58 -47 -81 -76 -7 -9 -28 -16
-46 -16 -35 0 -46 -13 -46 -52 0 -18 5 -19 58 -13 62 7 105 31 111 61 6 36 22
46 43 27 25 -23 39 -7 49 58 5 28 15 59 24 69 18 20 19 42 3 58 -7 7 -13 22
-13 34 0 23 -19 35 -29 19z"/>
<path d="M2810 4896 c0 -14 17 -44 38 -69 20 -24 45 -54 55 -67 14 -16 22 -19
30 -11 14 14 -2 48 -56 117 -45 58 -67 68 -67 30z"/>
<path d="M3295 4900 c-7 -12 12 -50 26 -50 16 0 22 29 9 45 -14 17 -26 19 -35
5z"/>
<path d="M2585 4838 c-26 -20 -27 -24 -20 -72 4 -28 9 -67 10 -86 2 -52 15
-97 29 -110 19 -15 49 79 40 126 l-7 36 39 -4 c29 -2 39 1 42 13 4 19 -73 119
-92 119 -7 0 -26 -10 -41 -22z"/>
<path d="M3274 4825 c-7 -18 1 -32 27 -45 27 -15 37 14 14 40 -21 24 -34 25
-41 5z"/>
<path d="M9997 4785 c-18 -18 -12 -47 15 -71 39 -36 78 27 42 67 -21 23 -37
24 -57 4z"/>
<path d="M2753 4783 c-21 -8 -15 -52 12 -78 28 -29 43 -31 51 -10 14 35 -32
99 -63 88z"/>
<path d="M9501 4737 c-17 -21 -3 -49 23 -45 15 2 21 10 21 28 0 28 -26 38 -44
17z"/>
<path d="M9909 4712 c-14 -12 -20 -25 -16 -35 8 -21 21 -21 41 -1 34 33 12 65
-25 36z"/>
<path d="M9592 4695 c-35 -44 -5 -77 32 -36 19 21 18 52 0 58 -7 2 -21 -8 -32
-22z"/>
<path d="M9328 4699 c-22 -12 -23 -52 -4 -68 12 -10 19 -8 36 9 38 38 12 86
-32 59z"/>
<path d="M2960 4658 c-6 -7 -17 -21 -24 -32 -10 -14 -24 -18 -64 -18 -28 1
-54 -3 -57 -8 -3 -5 3 -27 15 -49 14 -29 20 -60 20 -108 0 -77 25 -133 60
-133 19 0 19 5 14 78 -5 55 -12 83 -25 98 -26 27 -24 54 2 54 27 0 109 67 109
89 0 18 -18 41 -32 41 -4 0 -12 -6 -18 -12z"/>
<path d="M10276 4635 c-10 -22 -22 -35 -34 -35 -22 0 -62 -35 -62 -55 0 -10
11 -15 31 -15 31 0 31 -1 26 -35 -3 -19 -2 -35 4 -35 10 0 99 179 99 199 0 6
-11 11 -25 11 -19 0 -28 -8 -39 -35z"/>
<path d="M2704 4615 c-9 -23 3 -57 31 -87 30 -33 41 -35 50 -9 16 52 -62 146
-81 96z"/>
<path d="M9771 4591 c-14 -26 2 -71 27 -71 33 0 63 30 60 58 -3 23 -8 27 -40
30 -28 2 -39 -1 -47 -17z"/>
<path d="M3613 4554 c-8 -22 9 -48 36 -52 17 -3 21 2 21 22 0 15 -8 30 -19 36
-26 14 -31 13 -38 -6z"/>
<path d="M9876 4541 c-22 -24 -26 -76 -6 -76 19 0 60 62 53 81 -7 19 -27 18
-47 -5z"/>
<path d="M3162 4519 c4 -31 54 -67 70 -51 16 16 -20 66 -51 70 -18 3 -22 -1
-19 -19z"/>
<path d="M10123 4532 c-6 -4 -17 -20 -23 -36 -9 -26 -12 -27 -23 -12 -11 15
-14 14 -44 -4 -22 -13 -34 -29 -38 -54 -4 -19 -4 -39 -1 -44 3 -5 35 -8 71 -6
63 3 65 2 80 -26 9 -17 20 -30 25 -30 6 0 20 20 32 44 27 56 15 76 -43 76 -44
0 -51 16 -19 43 35 30 21 73 -17 49z"/>
<path d="M9934 4505 c-19 -29 -12 -45 21 -45 31 0 52 35 34 56 -17 21 -36 17
-55 -11z"/>
<path d="M3100 4495 c-18 -21 -4 -65 20 -65 16 0 20 7 20 34 0 37 -21 54 -40
31z"/>
<path d="M3487 4503 c-22 -22 8 -73 44 -73 21 0 26 29 9 61 -10 19 -40 26 -53
12z"/>
<path d="M2717 4427 l-25 -34 49 -91 c44 -82 53 -92 77 -92 16 0 36 6 46 13
24 18 11 43 -45 88 -38 30 -41 35 -35 69 4 24 1 43 -10 58 -20 29 -27 28 -57
-11z"/>
<path d="M3034 4445 c-13 -33 25 -70 48 -47 8 8 6 18 -6 36 -19 29 -34 33 -42
11z"/>
<path d="M9502 4438 c-17 -17 -15 -58 2 -58 21 0 46 28 46 51 0 22 -29 26 -48
7z"/>
<path d="M9698 4429 c-25 -14 -24 -59 2 -59 22 0 44 34 36 56 -6 16 -15 17
-38 3z"/>
<path d="M9857 4379 c-19 -11 -23 -44 -7 -54 15 -9 40 14 40 36 0 23 -11 30
-33 18z"/>
<path d="M9260 4365 c-16 -19 -6 -45 19 -45 22 0 34 33 18 49 -15 15 -22 14
-37 -4z"/>
<path d="M9538 4369 c-22 -12 -23 -38 -4 -45 22 -8 56 14 56 36 0 22 -24 26
-52 9z"/>
<path d="M3353 4345 c-5 -16 22 -55 39 -55 18 0 20 31 3 50 -22 24 -34 25 -42
5z"/>
<path d="M3530 4341 c0 -24 64 -81 90 -81 30 0 25 41 -8 73 -34 32 -82 37 -82
8z"/>
<path d="M2974 4339 c-10 -17 23 -46 38 -31 8 8 8 15 -2 27 -15 18 -26 19 -36
4z"/>
<path d="M3201 4316 c-26 -28 -22 -59 10 -76 22 -12 39 -5 39 16 0 8 5 23 12
33 14 24 4 51 -20 51 -10 0 -29 -11 -41 -24z"/>
<path d="M10052 4308 c-7 -7 -12 -27 -12 -46 0 -26 4 -33 16 -30 24 4 58 53
51 72 -7 19 -38 21 -55 4z"/>
<path d="M8951 4264 c-24 -31 -28 -74 -7 -74 20 0 68 59 64 79 -5 26 -34 24
-57 -5z"/>
<path d="M9654 4278 c-4 -6 5 -19 19 -30 26 -19 26 -31 2 -90 -6 -14 -2 -18
18 -18 14 0 29 6 34 13 11 17 43 109 43 123 0 16 -107 17 -116 2z"/>
<path d="M9846 4271 c-25 -28 -33 -89 -12 -97 25 -10 56 24 56 61 0 44 -21 61
-44 36z"/>
<path d="M2916 4265 c-18 -19 -21 -48 -6 -76 15 -27 46 -24 67 7 15 24 15 29
2 53 -18 32 -41 38 -63 16z"/>
<path d="M9450 4265 c0 -8 7 -15 15 -15 8 0 15 7 15 15 0 8 -7 15 -15 15 -8 0
-15 -7 -15 -15z"/>
<path d="M9566 4244 c-6 -16 9 -54 22 -54 16 0 32 24 32 47 0 18 -6 23 -24 23
-13 0 -27 -7 -30 -16z"/>
<path d="M3080 4235 c-29 -35 0 -125 39 -125 36 0 42 58 11 108 -22 36 -32 39
-50 17z"/>
<path d="M9915 4234 c-18 -14 -19 -17 -4 -42 11 -20 23 -27 44 -27 35 0 44 24
24 61 -14 27 -35 30 -64 8z"/>
<path d="M9323 4203 c-44 -24 -63 -41 -63 -54 0 -29 28 -35 53 -12 12 11 35
25 51 30 40 12 56 38 36 57 -13 12 -23 9 -77 -21z"/>
<path d="M3554 4205 c-13 -33 25 -70 48 -47 8 8 8 18 0 37 -13 28 -39 33 -48
10z"/>
<path d="M10003 4183 c-10 -16 -33 -42 -50 -59 -34 -32 -42 -57 -22 -70 6 -3
36 11 67 32 60 41 77 79 51 110 -17 20 -26 18 -46 -13z"/>
<path d="M9827 4128 c-32 -43 -40 -72 -38 -133 3 -74 -49 -175 -89 -175 -21 0
-32 24 -24 54 7 28 -27 71 -62 80 -67 17 -100 -61 -39 -94 60 -33 67 -92 19
-161 -25 -36 -26 -80 -2 -95 39 -25 104 51 93 110 -7 33 -5 35 42 62 71 40 83
54 83 89 0 18 11 46 25 65 18 24 25 47 25 79 0 25 5 63 9 85 17 69 -3 85 -42
34z"/>
<path d="M2840 4127 c0 -7 23 -39 51 -71 47 -51 55 -57 86 -54 31 2 39 -2 66
-40 28 -39 30 -45 19 -75 -16 -44 -15 -68 3 -92 14 -17 19 -18 47 -7 37 14 48
9 48 -21 0 -31 12 -45 51 -65 25 -13 35 -25 37 -46 l4 -29 -32 26 c-63 53 -68
28 -7 -39 23 -27 56 -64 74 -83 17 -20 33 -34 36 -31 2 3 1 36 -2 73 -5 50
-11 71 -24 78 -13 8 -17 22 -15 54 1 36 -4 50 -31 81 -24 27 -31 43 -27 60 4
14 -3 40 -19 70 -14 26 -25 55 -25 65 0 10 -4 21 -10 24 -6 4 -5 13 2 25 9 15
10 22 1 31 -16 16 -36 1 -30 -22 3 -12 0 -19 -8 -19 -8 0 -18 -8 -24 -17 -9
-17 -11 -17 -25 2 -9 11 -30 44 -47 73 -34 59 -65 71 -56 22 6 -29 5 -29 -26
-23 -18 3 -47 19 -65 35 -36 30 -52 35 -52 15z m308 -217 c9 -24 8 -30 -2 -30
-15 0 -26 21 -26 51 0 27 16 16 28 -21z"/>
<path d="M3373 4125 c-26 -18 -38 -62 -22 -81 14 -17 51 -18 67 -2 18 18 15
63 -6 81 -16 15 -21 15 -39 2z"/>
<path d="M3225 4079 c-12 -19 5 -59 30 -71 32 -14 55 -4 55 26 0 39 -67 75
-85 45z"/>
<path d="M9446 4065 c-6 -18 16 -30 39 -21 8 3 15 12 15 21 0 20 -46 20 -54 0z"/>
<path d="M9635 4056 c-11 -8 -25 -11 -32 -9 -16 6 -53 -24 -53 -44 0 -16 32
-17 48 -1 9 9 15 9 24 0 18 -18 56 -15 66 6 12 21 -2 62 -21 62 -7 0 -22 -6
-32 -14z"/>
<path d="M3420 4017 c0 -7 7 -22 15 -33 8 -10 15 -35 15 -54 0 -43 24 -80 51
-80 30 0 33 25 10 70 -12 22 -21 49 -21 60 0 10 -7 26 -16 34 -19 19 -54 21
-54 3z"/>
<path d="M9924 3989 c-28 -19 -46 -43 -59 -74 -18 -48 -16 -61 9 -52 16 6 116
134 116 148 0 16 -24 8 -66 -22z"/>
<path d="M9396 3975 c-8 -23 4 -45 25 -45 20 0 44 35 34 50 -10 15 -52 12 -59
-5z"/>
<path d="M3620 3955 c0 -8 9 -24 20 -35 11 -11 27 -20 35 -20 21 0 19 33 -3
53 -23 21 -52 22 -52 2z"/>
<path d="M9261 3931 c-19 -12 -6 -43 16 -39 21 4 31 48 11 48 -7 0 -19 -4 -27
-9z"/>
<path d="M9476 3924 c-19 -18 -21 -40 -5 -50 16 -9 53 31 46 50 -8 20 -21 20
-41 0z"/>
<path d="M9037 3923 c-10 -9 -8 -41 2 -48 12 -7 41 22 41 41 0 14 -31 20 -43
7z"/>
<path d="M3263 3894 c-7 -18 34 -64 58 -64 30 0 33 33 4 57 -30 27 -53 29 -62
7z"/>
<path d="M9321 3897 c-17 -17 -13 -37 9 -37 11 0 20 2 20 4 0 2 3 11 6 19 7
18 -20 29 -35 14z"/>
<path d="M3480 3803 c0 -38 58 -102 93 -103 31 0 19 41 -23 82 -44 41 -70 49
-70 21z"/>
<path d="M3855 3810 c-12 -19 4 -58 26 -65 28 -9 41 6 37 41 -2 23 -9 30 -30
32 -14 2 -29 -2 -33 -8z"/>
<path d="M3393 3793 c-20 -7 -15 -58 6 -77 27 -25 55 -17 59 16 6 51 -23 78
-65 61z"/>
<path d="M9115 3749 c-30 -36 -31 -85 -3 -103 21 -13 40 9 57 65 21 70 -9 91
-54 38z"/>
<path d="M3741 3756 c-10 -11 -9 -24 0 -58 15 -52 32 -73 53 -65 29 12 16 107
-18 129 -16 11 -22 10 -35 -6z"/>
<path d="M9731 3761 c-17 -11 -7 -61 13 -61 20 0 49 37 43 55 -7 17 -34 20
-56 6z"/>
<path d="M8707 3753 c-13 -12 -7 -33 8 -33 8 0 15 9 15 20 0 20 -11 26 -23 13z"/>
<path d="M9464 3752 c-20 -13 -36 -54 -30 -77 11 -42 58 -41 109 3 20 18 23
42 3 42 -7 0 -25 9 -39 20 -28 23 -28 22 -43 12z"/>
<path d="M8812 3721 c-23 -14 -10 -46 18 -46 20 0 25 5 25 25 0 26 -20 36 -43
21z"/>
<path d="M9346 3694 c-25 -24 -20 -54 7 -54 27 0 57 28 57 53 0 22 -43 23 -64
1z"/>
<path d="M3364 3666 c-8 -22 3 -33 18 -18 9 9 9 15 0 24 -9 9 -13 7 -18 -6z"/>
<path d="M8394 3645 c-7 -18 3 -35 21 -35 15 0 28 27 19 41 -8 14 -34 11 -40
-6z"/>
<path d="M3437 3626 c-8 -20 21 -56 44 -56 24 0 24 11 -2 44 -23 29 -34 33
-42 12z"/>
<path d="M3555 3630 c-15 -25 40 -77 132 -124 29 -14 63 -26 75 -26 14 0 35
-13 50 -30 30 -35 68 -40 68 -10 0 19 -45 50 -73 50 -7 0 -23 13 -34 29 -14
18 -37 32 -65 40 -24 6 -60 27 -82 46 -39 35 -60 43 -71 25z"/>
<path d="M4334 3595 c-15 -11 -17 -17 -8 -32 6 -10 21 -19 33 -21 17 -3 21 2
21 21 0 35 -22 50 -46 32z"/>
<path d="M8506 3575 c-30 -31 -15 -62 25 -50 15 5 19 14 17 33 -4 31 -20 38
-42 17z"/>
<path d="M8891 3571 c-25 -25 -26 -31 -6 -57 8 -10 15 -30 15 -44 0 -32 17
-50 46 -50 16 0 24 -7 26 -22 4 -28 45 -32 61 -7 14 22 2 49 -23 49 -14 0 -20
7 -20 23 0 13 -11 34 -24 46 -14 13 -26 35 -28 49 -4 33 -22 38 -47 13z"/>
<path d="M3397 3552 c-21 -23 -21 -35 -2 -72 19 -37 54 -49 72 -24 44 60 -22
149 -70 96z"/>
<path d="M9205 3541 c-48 -22 -95 -64 -95 -86 0 -19 19 -19 48 1 13 9 51 23
85 30 63 15 90 35 80 60 -7 20 -70 17 -118 -5z"/>
<path d="M9568 3528 c-18 -19 -44 -38 -58 -40 -14 -3 -33 -9 -43 -13 -15 -6
-17 -4 -11 19 7 31 -19 47 -41 25 -24 -25 -22 -52 4 -59 22 -5 23 -7 8 -22 -9
-9 -22 -18 -29 -20 -6 -2 -8 -10 -4 -16 5 -8 13 -9 25 -3 10 6 27 7 39 4 30
-8 174 129 155 148 -10 10 -19 5 -45 -23z"/>
<path d="M4281 3531 c-23 -15 2 -61 33 -61 13 0 29 -7 36 -15 17 -21 30 -19
30 4 0 11 -9 22 -19 26 -11 3 -26 17 -35 30 -18 27 -24 29 -45 16z"/>
<path d="M3575 3496 c-18 -13 -18 -15 -1 -40 12 -19 24 -26 39 -24 29 4 30 45
1 64 -17 12 -23 12 -39 0z"/>
<path d="M4713 3503 c-21 -8 -14 -33 12 -45 20 -9 28 -9 38 1 23 23 -17 58
-50 44z"/>
<path d="M8640 3491 c-14 -27 -13 -41 5 -48 20 -7 55 24 55 49 0 25 -46 24
-60 -1z"/>
<path d="M4052 3468 c4 -29 52 -58 69 -41 9 9 5 18 -14 37 -33 33 -60 34 -55
4z"/>
<path d="M3504 3405 c-9 -38 14 -87 40 -83 16 2 22 11 24 41 2 21 -2 45 -9 53
-19 23 -48 17 -55 -11z"/>
<path d="M3716 3408 c-22 -31 -20 -40 14 -73 17 -16 30 -33 30 -38 0 -23 43
-67 66 -67 30 0 30 6 -1 52 -14 20 -25 47 -25 60 0 30 -36 88 -54 88 -8 0 -22
-10 -30 -22z"/>
<path d="M9261 3379 c-54 -40 -54 -74 -1 -103 l35 -19 -32 -35 c-18 -20 -33
-40 -33 -44 0 -35 93 47 97 85 16 153 16 147 -4 147 -10 0 -38 -14 -62 -31z"/>
<path d="M3975 3340 c-11 -18 28 -52 49 -44 27 10 16 48 -16 52 -14 2 -29 -2
-33 -8z"/>
<path d="M8775 3330 c-3 -11 -3 -24 0 -30 10 -16 45 8 45 30 0 27 -37 26 -45
0z"/>
<path d="M3644 3315 c-3 -14 -7 -25 -8 -25 0 0 -18 -6 -40 -14 l-38 -13 28
-27 c16 -14 39 -26 53 -26 13 0 56 -16 96 -36 72 -36 105 -40 112 -17 7 19
-43 63 -71 63 -31 0 -76 20 -76 33 0 6 8 19 17 30 17 18 17 20 -6 38 -33 27
-59 24 -67 -6z"/>
<path d="M4110 3320 c0 -20 27 -40 54 -40 23 0 19 26 -6 44 -30 22 -48 20 -48
-4z"/>
<path d="M8176 3309 c-18 -27 -10 -49 18 -49 28 0 46 18 46 47 0 30 -43 32
-64 2z"/>
<path d="M8395 3316 c-22 -16 -14 -46 13 -46 25 0 46 25 38 45 -7 19 -26 19
-51 1z"/>
<path d="M9112 3318 c-21 -21 -14 -48 11 -48 25 0 57 28 57 48 0 16 -53 15
-68 0z"/>
<path d="M8023 3303 c-7 -2 -13 -14 -13 -24 0 -31 54 -22 58 9 3 22 -14 28
-45 15z"/>
<path d="M9002 3293 c-35 -7 -114 -86 -106 -107 8 -22 37 -20 59 4 10 11 35
25 56 30 41 11 59 41 39 65 -7 8 -15 14 -19 14 -3 -1 -16 -4 -29 -6z"/>
<path d="M3893 3270 c-38 -15 -28 -62 19 -86 27 -14 31 -14 49 2 48 44 -5 109
-68 84z"/>
<path d="M4265 3250 c-10 -16 15 -40 41 -40 29 0 32 25 5 40 -25 13 -38 13
-46 0z"/>
<path d="M8443 3223 c-18 -7 -16 -48 2 -67 52 -52 119 -9 85 55 -10 18 -56 25
-87 12z"/>
<path d="M8663 3190 c-64 -39 -67 -98 -4 -65 21 11 43 14 66 9 39 -7 42 -11
21 -28 -8 -6 -17 -21 -21 -33 -6 -21 -3 -23 34 -23 28 0 41 -4 41 -14 0 -34
26 -38 100 -13 64 21 72 22 77 8 16 -55 29 -59 73 -22 l35 29 -20 21 c-11 13
-29 21 -45 20 -14 -1 -33 2 -44 6 -10 5 -32 3 -50 -3 -64 -23 -96 -7 -96 47 0
12 -7 21 -15 21 -9 0 -15 9 -15 24 0 13 -7 27 -16 30 -31 12 -90 6 -121 -14z"/>
<path d="M9120 3187 c-34 -17 -36 -70 -3 -75 42 -6 84 68 47 82 -19 7 -14 8
-44 -7z"/>
<path d="M4010 3175 c-16 -19 3 -45 31 -45 22 0 26 29 7 48 -16 16 -23 15 -38
-3z"/>
<path d="M5438 3179 c-10 -5 -18 -16 -18 -24 0 -18 46 -49 60 -40 14 8 13 48
-2 63 -14 14 -18 14 -40 1z"/>
<path d="M7483 3173 c-20 -8 -15 -31 8 -38 25 -8 44 7 36 29 -6 16 -21 19 -44
9z"/>
<path d="M3874 3145 c-9 -21 23 -65 46 -65 26 0 25 20 -1 54 -23 29 -37 33
-45 11z"/>
<path d="M3706 3143 c-7 -7 23 -43 36 -43 4 0 8 7 8 15 0 16 -34 38 -44 28z"/>
<path d="M7664 3129 c-3 -6 -1 -15 6 -19 17 -11 50 0 50 16 0 17 -46 19 -56 3z"/>
<path d="M7773 3133 c-7 -2 -13 -13 -13 -24 0 -24 42 -26 61 -3 19 23 -13 42
-48 27z"/>
<path d="M7955 3131 c-3 -5 -1 -12 5 -16 12 -7 30 2 30 16 0 12 -27 12 -35 0z"/>
<path d="M8247 3102 c-34 -38 -14 -61 33 -37 37 19 42 55 7 55 -13 0 -31 -8
-40 -18z"/>
<path d="M4173 3084 c-3 -8 -1 -26 5 -40 10 -20 19 -24 54 -24 24 0 60 -3 81
-6 55 -10 47 12 -17 40 -29 13 -57 29 -60 35 -11 17 -56 13 -63 -5z"/>
<path d="M8545 3073 c-11 -2 -31 -13 -45 -23 -21 -17 -23 -21 -10 -30 8 -5 46
-10 83 -10 54 0 69 3 74 17 4 10 -2 23 -16 35 -22 17 -43 20 -86 11z"/>
<path d="M3800 3059 c0 -9 91 -79 104 -80 6 -1 21 0 34 1 13 1 54 -17 92 -39
38 -23 73 -41 79 -41 18 0 12 59 -8 79 -10 10 -38 22 -62 26 -24 4 -60 19 -80
35 -31 25 -44 28 -97 27 -34 -1 -62 -5 -62 -8z"/>
<path d="M8020 3055 c-19 -23 -8 -50 22 -53 19 -2 28 2 33 18 12 39 -29 66
-55 35z"/>
<path d="M4413 3053 c-18 -7 -16 -21 7 -50 13 -17 17 -34 14 -52 -6 -30 16
-61 43 -61 12 0 14 7 9 33 -4 17 -10 50 -13 72 -8 58 -24 73 -60 58z"/>
<path d="M8150 3028 c0 -13 -7 -36 -15 -52 -8 -15 -15 -32 -15 -37 0 -16 37
-9 64 12 59 46 59 99 0 99 -29 0 -34 -4 -34 -22z"/>
<path d="M4582 3002 c-12 -36 1 -62 32 -62 25 0 56 28 56 51 0 23 -21 39 -51
39 -21 0 -29 -7 -37 -28z"/>
<path d="M6014 3015 c-4 -9 -2 -21 4 -27 16 -16 47 -5 47 17 0 26 -42 34 -51
10z"/>
<path d="M7201 3001 c-23 -15 -5 -44 21 -35 30 9 32 10 25 29 -7 17 -25 19
-46 6z"/>
<path d="M4983 2969 c-29 -11 -30 -43 -1 -63 28 -20 52 -20 68 -1 27 33 -22
81 -67 64z"/>
<path d="M7483 2970 c-26 -10 -31 -47 -9 -56 24 -9 58 15 54 38 -4 25 -15 30
-45 18z"/>
<path d="M8626 2964 c-29 -29 -11 -84 27 -84 40 0 59 38 41 84 -8 21 -48 21
-68 0z"/>
<path d="M8806 2959 c-38 -30 -35 -59 7 -59 61 0 100 47 58 70 -27 14 -35 13
-65 -11z"/>
<path d="M8277 2953 c-14 -13 -6 -49 13 -61 13 -8 20 -23 20 -41 0 -21 6 -32
20 -36 22 -7 26 -20 10 -30 -16 -10 -12 -35 7 -42 9 -4 25 -15 35 -25 20 -20
36 -22 57 -9 19 12 6 41 -17 41 -14 0 -21 9 -26 31 -9 48 -9 49 32 49 43 0 69
16 74 45 3 18 -3 20 -52 20 -58 0 -113 23 -123 50 -6 15 -38 21 -50 8z"/>
<path d="M4157 2943 c-13 -13 -7 -32 14 -44 17 -9 24 -8 36 4 13 12 12 16 -2
31 -17 17 -37 21 -48 9z"/>
<path d="M7818 2939 c-10 -5 -18 -19 -18 -30 0 -17 6 -20 33 -17 27 2 32 7 32
28 0 27 -20 36 -47 19z"/>
<path d="M5495 2910 c-10 -16 15 -40 41 -40 26 0 31 19 12 38 -15 15 -45 16
-53 2z"/>
<path d="M6542 2893 c2 -10 14 -19 26 -21 19 -3 23 1 20 15 -2 10 -14 19 -26
21 -19 3 -23 -1 -20 -15z"/>
<path d="M4282 2873 c-4 -10 -6 -34 -3 -53 5 -27 14 -39 41 -52 65 -31 80 -14
35 40 -13 16 -29 41 -34 56 -12 30 -27 34 -39 9z"/>
<path d="M4702 2881 c-20 -12 -10 -46 14 -49 25 -4 40 24 23 44 -13 16 -19 17
-37 5z"/>
<path d="M5913 2874 c-3 -9 0 -20 7 -24 18 -11 54 4 58 24 5 22 -56 23 -65 0z"/>
<path d="M6997 2883 c-12 -12 -7 -43 7 -49 22 -8 56 14 56 36 0 15 -7 20 -28
20 -16 0 -32 -3 -35 -7z"/>
<path d="M6598 2863 c-22 -5 -24 -39 -2 -47 17 -7 54 10 54 24 0 13 -32 27
-52 23z"/>
<path d="M8016 2854 c-28 -28 4 -104 38 -91 10 4 16 17 15 34 0 16 2 38 6 51
6 19 4 22 -18 22 -14 0 -33 -7 -41 -16z"/>
<path d="M8545 2847 c-49 -41 -30 -54 69 -49 50 3 91 0 98 -6 9 -7 24 -3 51
14 39 25 48 44 22 45 -8 0 -50 2 -92 3 -43 1 -87 6 -99 10 -15 5 -29 1 -49
-17z"/>
<path d="M4127 2853 c-24 -24 34 -73 86 -73 39 0 44 25 10 54 -27 24 -81 35
-96 19z"/>
<path d="M4442 2844 c-27 -18 -28 -36 -4 -57 24 -22 55 -21 75 1 45 50 -14 96
-71 56z"/>
<path d="M5040 2836 c0 -16 27 -29 41 -20 13 8 -9 34 -27 34 -8 0 -14 -6 -14
-14z"/>
<path d="M6477 2838 c-30 -22 -11 -50 32 -46 31 3 36 6 36 28 0 19 -6 26 -25
28 -14 2 -33 -3 -43 -10z"/>
<path d="M7350 2832 c-27 -22 -20 -42 14 -42 28 0 50 24 42 45 -7 20 -29 19
-56 -3z"/>
<path d="M6893 2834 c-20 -8 -15 -42 6 -49 29 -9 52 5 49 29 -3 21 -30 30 -55
20z"/>
<path d="M7743 2818 c-29 -14 -31 -48 -2 -48 32 0 59 19 59 40 0 22 -22 25
-57 8z"/>
<path d="M4764 2808 c-10 -15 32 -48 62 -48 29 0 31 20 6 43 -21 20 -58 22
-68 5z"/>
<path d="M8187 2779 c-13 -7 -17 -18 -13 -33 4 -18 -2 -24 -40 -40 -24 -10
-49 -28 -55 -40 -6 -11 -25 -35 -42 -53 -26 -27 -28 -35 -17 -48 21 -25 53
-14 72 25 22 45 37 62 49 55 16 -11 10 -41 -14 -61 -12 -11 -31 -32 -43 -48
-19 -26 -26 -29 -90 -30 -52 -1 -75 3 -92 16 -16 11 -33 15 -52 11 -21 -4 -42
2 -74 21 -50 29 -88 33 -106 11 -11 -14 -7 -22 31 -55 32 -30 48 -38 64 -33
40 14 69 9 73 -12 2 -11 8 -24 12 -28 9 -10 210 9 258 24 27 9 38 22 62 75 16
35 35 66 42 68 96 26 110 27 141 7 29 -17 35 -18 60 -5 23 12 26 19 21 42 -10
40 -19 45 -58 32 -27 -9 -45 -9 -68 -1 -17 6 -43 11 -58 11 -36 0 -45 25 -19
51 16 16 18 23 8 35 -14 17 -27 17 -52 3z"/>
<path d="M5244 2765 c-8 -20 13 -45 38 -45 24 0 34 26 18 45 -16 19 -49 19
-56 0z"/>
<path d="M4655 2760 c-10 -16 14 -40 41 -40 29 0 40 16 24 35 -14 17 -56 20
-65 5z"/>
<path d="M5020 2755 c-10 -12 -7 -19 16 -40 27 -25 58 -33 68 -16 10 16 -5 41
-35 56 -34 18 -34 18 -49 0z"/>
<path d="M7368 2762 c-24 -5 -23 -29 1 -42 25 -13 51 -3 51 20 0 19 -23 29
-52 22z"/>
<path d="M7542 2744 c-31 -22 -26 -63 10 -84 36 -20 62 -5 66 39 6 56 -30 77
-76 45z"/>
<path d="M8065 2746 c-11 -8 -16 -19 -12 -30 8 -21 29 -20 57 2 40 32 -3 59
-45 28z"/>
<path d="M4277 2743 c-12 -11 -8 -18 22 -36 38 -22 55 -2 21 25 -24 19 -33 22
-43 11z"/>
<path d="M5440 2737 c-60 -30 -16 -75 54 -56 44 12 50 44 10 59 -32 12 -34 12
-64 -3z"/>
<path d="M7828 2729 c-45 -26 5 -104 51 -80 26 14 35 45 21 71 -12 21 -44 26
-72 9z"/>
<path d="M4895 2721 c-10 -17 4 -31 31 -31 19 0 25 5 22 18 -4 19 -43 29 -53
13z"/>
<path d="M8477 2718 c-23 -8 -28 -15 -25 -37 4 -36 45 -40 92 -9 41 27 46 43
14 52 -30 8 -47 7 -81 -6z"/>
<path d="M5646 2711 c-8 -13 33 -41 51 -34 8 3 13 13 11 22 -4 18 -53 28 -62
12z"/>
<path d="M6633 2713 c-7 -2 -13 -16 -13 -30 0 -19 4 -24 21 -21 31 4 49 35 29
48 -16 11 -19 11 -37 3z"/>
<path d="M4560 2690 c0 -22 26 -41 83 -61 32 -11 39 -11 53 2 11 12 12 22 5
41 -11 28 -35 38 -98 38 -36 0 -43 -3 -43 -20z"/>
<path d="M6104 2698 c-8 -13 22 -38 48 -38 23 0 24 35 2 44 -24 9 -42 7 -50
-6z"/>
<path d="M6375 2687 c-20 -16 -13 -37 14 -37 26 0 43 21 30 37 -14 16 -21 16
-44 0z"/>
<path d="M7025 2680 c-11 -18 10 -32 41 -28 40 4 38 32 -3 36 -17 2 -34 -2
-38 -8z"/>
<path d="M4452 2668 c-7 -7 -12 -18 -12 -25 0 -14 57 -53 78 -53 19 0 14 34
-9 64 -22 28 -39 32 -57 14z"/>
<path d="M5920 2659 c-43 -19 -44 -21 -26 -35 26 -19 110 -18 126 1 6 8 10 22
8 32 -5 26 -54 27 -108 2z"/>
<path d="M7975 2667 c-24 -18 -11 -37 26 -37 33 0 51 26 28 41 -19 12 -32 11
-54 -4z"/>
<path d="M6871 2661 c-17 -11 -7 -41 12 -41 19 0 40 26 32 40 -8 12 -25 13
-44 1z"/>
<path d="M5732 2637 c-15 -18 -5 -27 30 -27 23 0 29 4 26 18 -4 21 -41 28 -56
9z"/>
<path d="M6523 2633 c-21 -7 -15 -33 7 -33 11 0 20 6 20 14 0 18 -11 25 -27
19z"/>
<path d="M4823 2613 c-7 -2 -13 -13 -13 -24 0 -20 15 -25 90 -32 25 -3 54 -7
65 -11 11 -3 27 -2 35 3 12 8 12 14 1 35 -8 13 -23 27 -35 30 -25 7 -126 6
-143 -1z"/>
<path d="M5175 2610 c-19 -31 74 -65 139 -50 52 12 67 27 42 46 -23 17 -171
20 -181 4z"/>
<path d="M5050 2595 c-18 -22 14 -55 52 -55 23 0 28 4 28 23 0 16 -9 28 -25
35 -34 15 -40 15 -55 -3z"/>
<path d="M7165 2600 c-15 -24 23 -44 94 -48 71 -4 111 8 111 33 0 11 -11 15
-39 15 -21 0 -65 3 -98 6 -43 5 -62 3 -68 -6z"/>
<path d="M6931 2586 c-22 -26 10 -63 43 -50 35 13 24 64 -14 64 -10 0 -23 -6
-29 -14z"/>
<path d="M5497 2584 c-18 -19 -5 -34 29 -34 28 0 35 3 32 18 -3 17 -48 29 -61
16z"/>
<path d="M5780 2577 c0 -19 21 -37 42 -37 23 0 24 35 2 44 -26 10 -44 7 -44
-7z"/>
<path d="M4690 2560 c0 -24 34 -43 60 -35 40 13 15 55 -32 55 -21 0 -28 -5
-28 -20z"/>
<path d="M6278 2569 c-45 -26 5 -84 51 -60 27 15 27 36 -1 55 -26 19 -27 19
-50 5z"/>
<path d="M4592 2558 c3 -7 13 -15 22 -16 12 -3 17 1 14 10 -3 7 -13 15 -22 16
-12 3 -17 -1 -14 -10z"/>
<path d="M5605 2544 c-9 -9 -14 -23 -11 -30 3 -8 9 -21 12 -29 5 -11 -1 -15
-19 -15 -30 0 -45 -18 -26 -31 25 -16 61 -10 66 10 4 17 9 18 34 9 16 -5 36
-7 45 -4 13 5 13 9 -3 37 -40 68 -68 83 -98 53z"/>
<path d="M6778 2549 c-36 -20 -8 -67 32 -54 16 5 20 14 18 33 -3 29 -23 38
-50 21z"/>
<path d="M7404 2535 c-8 -21 4 -35 30 -35 25 0 46 17 46 37 0 19 -69 17 -76
-2z"/>
<path d="M7507 2499 c-35 -25 -57 -48 -57 -60 0 -22 24 -24 59 -5 17 10 35 11
68 4 33 -7 48 -7 60 3 14 12 12 16 -14 39 -16 14 -33 33 -36 43 -9 24 -15 22
-80 -24z"/>
<path d="M6975 2510 c-4 -6 -3 -16 3 -22 6 -6 12 -6 17 2 4 6 3 16 -3 22 -6 6
-12 6 -17 -2z"/>
<path d="M4730 2500 c0 -13 78 -52 90 -45 16 10 11 34 -9 45 -25 13 -81 13
-81 0z"/>
<path d="M4867 2503 c-13 -12 -7 -20 27 -38 19 -11 40 -29 47 -41 11 -22 92
-64 123 -64 22 0 -40 89 -70 100 -13 5 -32 18 -44 30 -19 19 -69 27 -83 13z"/>
<path d="M5035 2490 c-10 -16 44 -59 81 -66 72 -13 88 24 24 56 -42 21 -95 26
-105 10z"/>
<path d="M6093 2475 c-7 -21 12 -35 50 -35 24 0 28 4 25 23 -4 28 -64 38 -75
12z"/>
<path d="M5327 2474 c-3 -4 -28 -6 -55 -6 -37 1 -54 -3 -67 -18 -39 -43 18
-79 87 -54 29 10 59 13 91 9 45 -5 47 -5 47 19 0 14 -9 31 -22 40 -23 16 -69
21 -81 10z"/>
<path d="M6445 2466 c-19 -14 -19 -14 0 -36 33 -37 99 -10 82 34 -8 20 -56 21
-82 2z"/>
<path d="M6633 2463 c-21 -8 -15 -41 8 -48 26 -8 54 16 46 39 -6 16 -29 20
-54 9z"/>
<path d="M7030 2450 c0 -16 7 -20 33 -20 38 0 48 6 40 26 -3 8 -19 14 -39 14
-27 0 -34 -4 -34 -20z"/>
<path d="M5975 2451 c-3 -6 -2 -28 1 -51 8 -49 -14 -80 -56 -80 -14 0 -35 -7
-46 -15 -10 -8 -35 -15 -55 -15 -39 0 -69 -24 -69 -56 0 -56 65 -60 109 -6 29
34 36 37 80 37 37 0 55 -5 73 -22 14 -13 29 -23 34 -23 6 0 20 -11 32 -25 15
-17 32 -25 53 -25 18 0 47 -9 65 -21 35 -21 85 -22 170 -4 21 5 42 1 62 -9 34
-17 117 -22 127 -7 8 14 -53 54 -94 60 -29 5 -37 12 -45 39 -11 38 -45 66 -69
56 -27 -10 -28 -35 -2 -66 14 -17 24 -33 21 -35 -2 -3 -41 -1 -87 3 -61 5 -86
12 -98 25 -9 11 -24 28 -33 39 -11 11 -30 20 -47 20 -16 0 -36 3 -45 6 -20 8
-21 43 -1 50 16 6 13 32 -7 87 -15 38 -58 61 -73 38z"/>
<path d="M7214 2450 c-42 -17 -35 -81 11 -102 34 -15 42 -4 47 57 3 44 1 50
-17 52 -11 1 -30 -2 -41 -7z"/>
<path d="M4850 2440 c0 -5 7 -10 15 -10 8 0 15 5 15 10 0 6 -7 10 -15 10 -8 0
-15 -4 -15 -10z"/>
<path d="M5804 2418 c-17 -27 83 -61 111 -38 21 17 19 25 -10 38 -33 15 -92
15 -101 0z"/>
<path d="M7646 2391 c-28 -43 -52 -61 -86 -61 -11 0 -35 -7 -53 -16 -17 -9
-56 -23 -87 -30 -54 -12 -56 -12 -83 14 -23 22 -31 24 -55 16 -38 -13 -39 -43
-3 -78 29 -28 31 -28 83 -16 29 6 91 23 138 36 47 13 91 24 98 24 7 0 37 14
67 31 41 23 58 28 72 21 13 -7 29 -6 53 5 l35 15 -28 12 c-16 7 -34 23 -40 37
-9 18 -22 25 -49 27 -34 3 -39 -1 -62 -37z"/>
<path d="M5469 2401 c-20 -16 -22 -23 -13 -38 12 -19 47 -21 110 -8 37 8 88
-14 104 -45 8 -16 7 -28 -4 -52 -23 -46 -20 -56 19 -64 20 -3 37 -5 39 -3 2 2
6 37 9 76 l6 73 -54 16 c-30 8 -57 20 -60 25 -10 15 -75 39 -105 39 -15 0 -38
-9 -51 -19z"/>
<path d="M6094 2375 c-8 -19 13 -45 36 -45 49 0 67 30 31 50 -28 15 -61 12
-67 -5z"/>
<path d="M6947 2383 c-4 -4 -4 -22 -1 -40 6 -32 4 -34 -34 -50 -45 -17 -57
-35 -42 -63 7 -13 5 -21 -6 -31 -8 -7 -14 -22 -12 -33 3 -19 9 -21 53 -18 57
3 81 23 64 53 -5 11 -16 19 -24 19 -8 0 -15 6 -15 13 0 20 43 57 67 57 25 0
73 36 73 55 0 32 -99 62 -123 38z"/>
<path d="M7413 2384 c-7 -3 -13 -17 -13 -30 0 -20 5 -24 28 -24 36 0 55 13 50
36 -3 19 -40 29 -65 18z"/>
<path d="M5165 2370 c-14 -23 7 -49 53 -64 107 -34 125 -36 150 -20 18 12 30
13 55 5 96 -29 172 -18 90 14 -21 9 -45 19 -54 24 -8 5 -65 7 -126 5 -108 -3
-110 -3 -123 21 -14 26 -34 32 -45 15z"/>
<path d="M6440 2368 c-15 -6 -64 -8 -122 -4 -59 3 -98 1 -98 -4 0 -5 12 -12
28 -15 15 -3 46 -16 69 -28 37 -19 47 -20 76 -9 18 7 45 12 60 12 31 0 53 30
35 48 -14 14 -15 14 -48 0z"/>
<path d="M6762 2356 c-13 -29 -54 -40 -101 -26 -70 20 -88 -24 -26 -64 21 -14
25 -23 20 -45 -4 -19 -1 -32 10 -41 8 -7 13 -21 10 -30 -7 -21 17 -32 51 -24
16 4 32 23 49 55 23 47 23 49 5 59 -10 5 -26 10 -34 10 -27 0 -17 27 14 40 56
23 83 90 37 90 -15 0 -28 -9 -35 -24z"/>
<path d="M7090 2297 c-67 -23 -100 -57 -87 -90 15 -39 157 -5 157 38 0 16 9
26 30 35 17 7 30 19 30 26 0 20 -53 16 -130 -9z"/>
<path d="M6535 2266 c-24 -18 -13 -46 19 -46 26 0 52 32 41 50 -9 14 -38 12
-60 -4z"/>
<path d="M7205 2262 c-17 -12 -57 -73 -52 -79 12 -12 69 11 84 33 12 19 13 27
3 39 -14 17 -20 18 -35 7z"/>
<path d="M5480 2252 c0 -16 33 -31 85 -38 48 -7 61 7 25 26 -30 16 -110 25
-110 12z"/>
<path d="M5977 2194 c-3 -4 -28 -6 -54 -6 -49 1 -84 -10 -65 -22 21 -13 149
-18 170 -7 34 18 28 41 -11 41 -19 0 -37 -3 -40 -6z"/>
</g>
</svg>
